<?xml version="1.0" encoding="UTF-8" standalone="no"?>
<!-- Created with Inkscape (http://www.inkscape.org/) -->
<svg
   xmlns:svg="http://www.w3.org/2000/svg"
   xmlns="http://www.w3.org/2000/svg"
   version="1.0"
   width="800"
   height="516.71478"
   id="svg2403"
   xml:space="preserve"><defs
     id="defs2406"><clipPath
       id="clipPath2452"><path
         d="M -540.28345,-308.26773 L -540.28345,-245.90552 L -446.00443,-245.90552 L -446.00443,-308.26773 L -540.28345,-308.26773 z"
         id="path2454" /></clipPath><clipPath
       id="clipPath2460"><path
         d="M 22.75098,15.23828 L 148.76074,15.23828 L 148.76074,96.62695 L 22.75098,96.62695 L 22.75098,15.23828 z"
         id="path2462" /></clipPath><clipPath
       id="clipPath2468"><path
         d="M 22.75098,15.23828 L 148.76074,15.23828 L 148.76074,96.62695 L 22.75098,96.62695 L 22.75098,15.23828 z"
         id="path2470" /></clipPath></defs><g
     transform="matrix(1.25,0,0,-1.25,45.016029,981.69339)"
     id="g2412"
     style="fill:#e8b500;fill-opacity:1;stroke:none"><g
       transform="matrix(6.8489435,0,0,-6.8489435,3664.358,-1322.359)"
       id="g2448"
       style="fill:#e8b500;fill-opacity:1;stroke:none"><g
         clip-path="url(#clipPath2452)"
         id="g2450"
         style="fill:#e8b500;fill-opacity:1;stroke:none"><g
           transform="matrix(0.74158,0,0,0.74158,-557.15637,-319.0433)"
           id="g2456"
           style="fill:#e8b500;fill-opacity:1;stroke:none"><g
             clip-path="url(#clipPath2460)"
             id="g2458"
             style="fill:#e8b500;fill-opacity:1;stroke:none"><g
               id="g2464"
               style="fill:#e8b500;fill-opacity:1;stroke:none"><g
                 clip-path="url(#clipPath2468)"
                 id="g2466"
                 style="fill:#e8b500;fill-opacity:1;stroke:none"><g
                   transform="translate(0,111.86435)"
                   id="g2472"
                   style="fill:#e8b500;fill-opacity:1;stroke:none"><path
                     d="M 38.11426,-88.3828 C 38.11426,-88.3828 37.95703,-81.93164 37.95703,-81.93164 C 37.95703,-81.93164 37.91895,-79.43358 37.91895,-79.43358 C 37.91895,-79.43358 37.91895,-76.67383 37.91895,-76.67383 C 37.91895,-76.67383 37.91895,-74.30664 37.91895,-74.30664 C 37.91895,-74.30664 37.91895,-68.28319 37.91895,-68.28319 C 39.01074,-68.28319 40.35645,-68.30469 41.95801,-68.34961 C 43.55762,-68.39453 44.61816,-68.41797 45.13867,-68.41797 C 45.13867,-68.41797 45.13867,-61.38086 45.13867,-61.38086 C 45.13867,-61.38086 42.64063,-61.51563 42.64063,-61.51563 C 42.64063,-61.51563 38.42676,-61.63281 38.42676,-61.63281 C 38.42676,-61.63281 33.50879,-61.78711 33.50879,-61.78711 C 33.50879,-61.78711 30.58105,-61.78711 30.58105,-61.78711 C 30.58105,-61.78711 30.62012,-64.48047 30.62012,-64.48047 C 30.62012,-64.48047 30.65918,-67.58397 30.65918,-67.58397 C 30.65918,-67.58397 30.69824,-74.57813 30.69824,-74.57813 C 30.69824,-74.57813 30.58105,-88.3828 30.58105,-88.3828 C 30.58105,-88.3828 38.11426,-88.3828 38.11426,-88.3828 z"
                     id="path2474"
                     style="fill:#e8b500;fill-opacity:1;fill-rule:nonzero;stroke:none" /><path
                     d="M 49.46387,-88.3828 C 49.46387,-88.3828 56.91699,-88.3828 56.91699,-88.3828 C 56.91699,-88.3828 56.84082,-83.03319 56.84082,-83.03319 C 56.84082,-83.03319 56.72363,-75.96289 56.72363,-75.96289 C 56.72363,-75.96289 56.84082,-67.99608 56.84082,-67.99608 C 56.84082,-67.99608 56.91699,-61.78711 56.91699,-61.78711 C 56.91699,-61.78711 49.46387,-61.78711 49.46387,-61.78711 C 49.46387,-61.78711 49.50293,-73.75586 49.50293,-73.75586 C 49.50293,-73.75586 49.46387,-88.3828 49.46387,-88.3828 z"
                     id="path2476"
                     style="fill:#e8b500;fill-opacity:1;fill-rule:nonzero;stroke:none" /><path
                     d="M 63.77051,-88.63086 C 63.77051,-88.63086 64.12207,-88.85547 64.12207,-88.85547 C 64.12207,-88.85547 65.05664,-88.03125 65.05664,-88.03125 C 65.05664,-88.03125 66.30371,-86.98438 66.30371,-86.98438 C 66.30371,-86.98438 67.39355,-86.04883 67.39355,-86.04883 C 67.39355,-86.04883 68.40723,-85.15039 68.40723,-85.15039 C 68.40723,-85.15039 70.47363,-83.31444 70.47363,-83.31444 C 70.47363,-83.31444 72.38086,-81.66797 72.38086,-81.66797 C 72.38086,-81.66797 75.84863,-78.63672 75.84863,-78.63672 C 75.84863,-78.63672 80.13379,-74.89258 80.13379,-74.89258 C 80.13379,-74.89258 80.13379,-78.15039 80.13379,-78.15039 C 80.13379,-78.15039 80.0957,-80.73438 80.0957,-80.73438 C 80.0957,-80.73438 80.0166,-84.51563 80.0166,-84.51563 C 80.0166,-84.51563 80.05566,-88.56055 80.05566,-88.56055 C 80.05566,-88.56055 86.57324,-88.41016 86.57324,-88.41016 C 86.57324,-88.41016 86.41699,-86.05272 86.41699,-86.05272 C 86.41699,-86.05272 86.34082,-83.88086 86.34082,-83.88086 C 86.34082,-83.88086 86.22168,-81.93358 86.22168,-81.93358 C 86.22168,-81.93358 86.06738,-78.60155 86.06738,-78.60155 C 86.06738,-78.60155 85.91113,-75.34375 85.91113,-75.34375 C 85.91113,-75.34375 85.55957,-67.18164 85.55957,-67.18164 C 85.55957,-67.18164 85.28711,-61.19141 85.28711,-61.19141 C 85.28711,-61.19141 84.93457,-61.04102 84.93457,-61.04102 C 84.93457,-61.04102 81.22949,-64.1875 81.22949,-64.1875 C 81.22949,-64.1875 77.52441,-67.40625 77.52441,-67.40625 C 77.52441,-67.40625 72.99902,-71.44922 72.99902,-71.44922 C 72.99902,-71.44922 68.98145,-75.08008 68.98145,-75.08008 C 68.98145,-75.08008 68.98145,-73.69727 68.98145,-73.69727 C 68.98145,-73.69727 68.98145,-71.46289 68.98145,-71.46289 C 68.98145,-71.46289 68.98145,-68.92969 68.98145,-68.92969 C 68.98145,-68.92969 68.98145,-61.51563 68.98145,-61.51563 C 68.98145,-61.51563 62.56348,-61.81445 62.56348,-61.81445 C 62.56348,-61.81445 62.75977,-65.92969 62.75977,-65.92969 C 62.75977,-65.92969 62.91602,-68.58397 62.91602,-68.58397 C 62.91602,-68.58397 62.91602,-70.45508 62.91602,-70.45508 C 62.91602,-70.45508 63.03223,-72.43555 63.03223,-72.43555 C 63.03223,-72.43555 63.18848,-75.65233 63.18848,-75.65233 C 63.18848,-75.65233 63.45996,-81.71094 63.45996,-81.71094 C 63.45996,-81.71094 63.61621,-85.15233 63.61621,-85.15233 C 63.61621,-85.15233 63.77051,-88.63086 63.77051,-88.63086 z"
                     id="path2478"
                     style="fill:#e8b500;fill-opacity:1;fill-rule:nonzero;stroke:none" /><path
                     d="M 91.27051,-88.18555 C 91.27051,-88.18555 98.76465,-88.18555 98.76465,-88.18555 C 98.76465,-88.18555 98.49121,-80.58397 98.49121,-80.58397 C 98.49121,-78.76172 98.51074,-77.38866 98.5498,-76.46483 C 98.58691,-75.54102 98.66113,-74.4043 98.76465,-73.05858 C 98.76465,-71.20897 99.13379,-69.80469 99.87598,-68.84375 C 100.61816,-67.8828 101.62598,-67.40233 102.90137,-67.40233 C 103.4209,-67.40233 103.94238,-67.55858 104.46191,-67.87108 C 104.98145,-68.18164 105.43848,-68.6875 105.8291,-69.38867 C 106.01074,-69.71289 106.15332,-70.10547 106.25684,-70.56836 C 106.36035,-71.0293 106.42676,-71.56055 106.45215,-72.16016 C 106.45215,-72.16016 106.53223,-74.51953 106.53223,-74.51953 C 106.53223,-74.51953 106.56934,-78.03905 106.56934,-78.03905 C 106.56934,-78.03905 106.41309,-88.78711 106.41309,-88.78711 C 106.41309,-88.78711 113.79004,-88.78711 113.79004,-88.78711 C 113.79004,-88.78711 113.79004,-78.89647 113.79004,-78.89647 C 113.79004,-76.57422 113.71973,-74.65039 113.5752,-73.12694 C 113.43066,-71.60352 113.04785,-69.99414 112.42285,-68.29492 C 111.90332,-66.69727 111.08301,-65.32227 109.96582,-64.17383 C 109.05566,-63.22461 108.02051,-62.48828 106.8623,-61.96484 C 105.7041,-61.43945 104.38379,-61.17772 102.90137,-61.17772 C 100.09082,-61.17772 97.56738,-61.96484 95.33105,-63.53711 C 94.18652,-64.36133 93.28809,-65.47266 92.6377,-66.87108 C 91.93457,-68.39453 91.58301,-70.1543 91.58301,-72.15233 C 91.58301,-72.15233 91.50488,-72.97852 91.50488,-72.97852 C 91.50488,-72.97852 91.42676,-74.36328 91.42676,-74.36328 C 91.42676,-74.36328 91.27051,-77.24805 91.27051,-77.24805 C 91.27051,-77.24805 91.15332,-80.65625 91.15332,-80.65625 C 91.15332,-81.42969 91.17285,-82.79688 91.21191,-84.7578 C 91.25098,-86.71875 91.27051,-87.86133 91.27051,-88.18555 z"
                     id="path2480"
                     style="fill:#e8b500;fill-opacity:1;fill-rule:nonzero;stroke:none" /><path
                     d="M 129.18262,-80.74805 C 130.04004,-81.87108 130.77441,-82.86328 131.38574,-83.72461 C 131.99707,-84.58594 132.45996,-85.24219 132.77246,-85.69141 C 132.77246,-85.69141 135.58301,-89.73633 135.58301,-89.73633 C 135.58301,-89.73633 140.77246,-84.17188 140.77246,-84.17188 C 140.77246,-84.17188 140.38379,-83.72266 140.38379,-83.72266 C 140.38379,-83.72266 139.29004,-82.40625 139.29004,-82.40625 C 139.29004,-82.40625 138.15723,-81.08983 138.15723,-81.08983 C 138.15723,-81.08983 137.02637,-79.73828 137.02637,-79.73828 C 137.02637,-79.73828 136.16699,-78.72266 136.16699,-78.72266 C 136.16699,-78.72266 135.15332,-77.51953 135.15332,-77.51953 C 135.15332,-77.51953 134.29395,-76.54297 134.29395,-76.54297 C 134.29395,-76.54297 133.55176,-75.64063 133.55176,-75.64063 C 133.55176,-75.64063 140.93066,-66.16797 140.93066,-66.16797 C 140.93066,-66.16797 135.42676,-60.23047 135.42676,-60.23047 C 135.42676,-60.23047 134.33301,-61.77734 134.33301,-61.77734 C 134.33301,-61.77734 133.43652,-63.13672 133.43652,-63.13672 C 133.43652,-63.13672 132.81152,-64.08008 132.81152,-64.08008 C 132.81152,-64.08008 131.36816,-66.11914 131.36816,-66.11914 C 131.36816,-66.11914 129.88379,-68.26953 129.88379,-68.26953 C 129.88379,-68.26953 129.21973,-69.21483 129.21973,-69.21483 C 129.21973,-69.21483 128.63574,-70.04492 128.63574,-70.04492 C 128.63574,-70.04492 127.30957,-68.09766 127.30957,-68.09766 C 127.30957,-68.09766 125.59277,-65.66211 125.59277,-65.66211 C 125.59277,-65.66211 123.75684,-62.96484 123.75684,-62.96484 C 123.75684,-62.96484 121.96191,-60.23047 121.96191,-60.23047 C 121.96191,-60.23047 116.96582,-65.92772 116.96582,-65.92772 C 116.96582,-65.92772 124.38184,-75.22655 124.38184,-75.22655 C 124.38184,-75.22655 122.54785,-77.55078 122.54785,-77.55078 C 122.54785,-77.55078 121.06348,-79.57422 121.06348,-79.57422 C 121.06348,-79.57422 119.50293,-81.5625 119.50293,-81.5625 C 119.50293,-81.5625 117.74707,-83.88672 117.74707,-83.88672 C 117.74707,-83.88672 123.20996,-89.73633 123.20996,-89.73633 C 123.20996,-89.73633 124.65527,-87.5625 124.65527,-87.5625 C 124.65527,-87.5625 125.94238,-85.69141 125.94238,-85.69141 C 125.94238,-85.69141 126.80176,-84.41797 126.80176,-84.41797 C 126.80176,-84.41797 127.58301,-83.18358 127.58301,-83.18358 C 127.58301,-83.18358 129.18262,-80.74805 129.18262,-80.74805 z"
                     id="path2482"
                     style="fill:#e8b500;fill-opacity:1;fill-rule:nonzero;stroke:none" /><path
                     d="M 145.28027,-93.55858 C 145.28027,-93.55858 26.22949,-93.55858 26.22949,-93.55858 C 26.22949,-93.55858 26.22949,-56.38477 26.22949,-56.38477 C 26.22949,-56.38477 145.28027,-56.38477 145.28027,-56.38477 C 145.28027,-56.38477 145.28027,-93.55858 145.28027,-93.55858 z M 77.47559,-20.08008 C 77.47559,-20.08008 78.03418,-21.42578 78.03418,-21.42578 C 78.03418,-21.42578 78.67676,-22.92773 78.67676,-22.92773 C 78.67676,-22.92773 79.23633,-24.19922 79.23633,-24.19922 C 79.23633,-24.19922 79.75684,-25.39258 79.75684,-25.39258 C 79.75684,-25.39258 90.36035,-26.08594 90.36035,-26.08594 C 90.36035,-26.08594 93.4834,-20.08008 93.4834,-20.08008 C 93.4834,-20.08008 100.40723,-24.58008 100.40723,-24.58008 C 100.40723,-24.58008 98.20801,-28.23633 98.20801,-28.23633 C 98.20801,-28.23633 96.44629,-31.16016 96.44629,-31.16016 C 96.44629,-31.16016 93.08301,-36.85352 93.08301,-36.85352 C 93.08301,-36.85352 88.84082,-43.97266 88.84082,-43.97266 C 88.84082,-43.97266 86.68066,-47.62695 86.68066,-47.62695 C 86.68066,-47.62695 85.2793,-49.97461 85.2793,-49.97461 C 85.2793,-49.97461 84.91895,-49.97461 84.91895,-49.97461 C 84.91895,-49.97461 83.63867,-47.71094 83.63867,-47.71094 C 83.63867,-47.71094 82.55762,-45.75195 82.55762,-45.75195 C 82.55762,-45.75195 81.55762,-43.98633 81.55762,-43.98633 C 81.55762,-43.98633 80.7168,-42.33789 80.7168,-42.33789 C 80.7168,-42.33789 79.43652,-40.07227 79.43652,-40.07227 C 79.43652,-40.07227 77.99512,-37.38672 77.99512,-37.38672 C 77.99512,-37.38672 76.83496,-35.19922 76.83496,-35.19922 C 76.83496,-35.19922 75.59473,-32.93555 75.59473,-32.93555 C 75.59473,-32.93555 74.75293,-31.43945 74.75293,-31.43945 C 74.75293,-31.43945 73.87305,-29.82617 73.87305,-29.82617 C 73.87305,-29.82617 70.79199,-24.18555 70.79199,-24.18555 C 70.79199,-24.18555 77.47559,-20.08008 77.47559,-20.08008 z M 82.95801,-33.40625 C 82.95801,-33.40625 83.75879,-35.13477 83.75879,-35.13477 C 83.75879,-35.13477 84.36035,-36.55469 84.36035,-36.55469 C 84.36035,-36.55469 84.99902,-37.9375 84.99902,-37.9375 C 84.99902,-37.9375 87.95996,-31.48633 87.95996,-31.48633 C 87.95996,-31.48633 81.99805,-31.10156 81.99805,-31.10156 C 81.99805,-31.10156 82.95801,-33.40625 82.95801,-33.40625 z M 119.64551,-49.29688 C 119.64551,-49.29688 116.52246,-48.37891 116.52246,-48.37891 C 116.04199,-48.19922 115.58691,-48.0332 115.16113,-47.88086 C 114.7334,-47.72852 114.2666,-47.54883 113.76074,-47.3457 C 112.85254,-46.96289 112.06543,-46.56836 111.39941,-46.16016 C 109.31738,-45.01172 107.43848,-43.55664 105.75684,-41.79688 C 105.08887,-41.05664 104.52832,-40.34961 104.0752,-39.67383 C 103.62207,-38.99805 103.18262,-38.1875 102.75488,-37.24414 C 102.32715,-36.29883 102.01465,-35.43164 101.81348,-34.64258 C 101.61426,-33.85156 101.51465,-32.99609 101.51465,-32.07813 C 101.51465,-30.69922 101.80762,-29.33398 102.39551,-27.98438 C 102.98145,-26.63086 103.6084,-25.63672 104.27637,-25 C 105.36816,-23.90234 106.57129,-23.04102 107.87793,-22.41602 C 109.18457,-21.79102 110.57324,-21.36328 112.04004,-21.13477 C 113.50879,-20.9043 115.08301,-20.79102 116.7627,-20.79102 C 119.05762,-20.79102 121.40527,-21.07422 123.80566,-21.63867 C 123.80566,-21.63867 123.72754,-33.7207 123.72754,-33.7207 C 123.72754,-33.7207 116.16309,-33.7207 116.16309,-33.7207 C 116.16309,-33.41211 116.1709,-32.9375 116.18262,-32.29883 C 116.19629,-31.6582 116.2041,-31.18555 116.2041,-30.87891 C 116.2041,-30.87891 116.2041,-27.42188 116.2041,-27.42188 C 115.74902,-27.42188 115.3291,-27.45313 114.94238,-27.51758 C 114.55371,-27.58008 114.06152,-27.68945 113.46191,-27.8418 C 112.86035,-27.99414 112.15918,-28.42773 111.36035,-29.14063 C 110.95996,-29.49609 110.6123,-30.00586 110.31934,-30.66797 C 109.97168,-31.22656 109.7998,-31.88867 109.7998,-32.65234 C 109.7998,-32.65234 109.91895,-33.68359 109.91895,-33.68359 C 110.18652,-34.77734 110.66504,-35.77539 111.36035,-36.67969 C 112.05371,-37.58203 113.00098,-38.4043 114.20215,-39.14258 C 116.28223,-40.51758 118.64355,-41.40625 121.28613,-41.81445 C 121.28613,-41.81445 119.64551,-49.29688 119.64551,-49.29688 z M 47.7041,-41.77344 C 47.7041,-41.77344 55.42773,-42.0332 55.42773,-42.0332 C 55.42773,-42.0332 55.3877,-35.3125 55.3877,-35.3125 C 55.3877,-35.3125 55.34863,-31.47461 55.34863,-31.47461 C 55.34863,-31.47461 55.34863,-21.33594 55.34863,-21.33594 C 55.34863,-21.33594 63.39258,-21.33594 63.39258,-21.33594 C 63.39258,-21.33594 63.39258,-27.63672 63.39258,-27.63672 C 63.39258,-27.63672 63.35254,-31.59375 63.35254,-31.59375 C 63.35254,-31.59375 63.31152,-36.24219 63.31152,-36.24219 C 63.31152,-36.24219 63.27148,-39.00977 63.27148,-39.00977 C 63.27148,-39.00977 63.23242,-42.04297 63.23242,-42.04297 C 63.23242,-42.04297 67.43457,-41.9082 67.43457,-41.9082 C 67.43457,-41.9082 70.99512,-41.83984 70.99512,-41.83984 C 70.99512,-41.83984 70.99512,-48.48438 70.99512,-48.48438 C 70.99512,-48.48438 67.9541,-48.32422 67.9541,-48.32422 C 67.9541,-48.32422 66.83398,-48.26953 66.83398,-48.26953 C 66.83398,-48.26953 65.59277,-48.26953 65.59277,-48.26953 C 65.59277,-48.26953 63.1123,-48.26953 63.1123,-48.26953 C 63.1123,-48.26953 61.83105,-48.26953 61.83105,-48.26953 C 61.83105,-48.26953 60.4707,-48.26953 60.4707,-48.26953 C 60.4707,-48.26953 57.22852,-48.26953 57.22852,-48.26953 C 57.22852,-48.26953 53.66699,-48.26953 53.66699,-48.26953 C 53.66699,-48.26953 50.30566,-48.37109 50.30566,-48.37109 C 50.30566,-48.37109 47.7041,-48.47266 47.7041,-48.47266 C 47.7041,-48.47266 47.7041,-41.77344 47.7041,-41.77344 z M 148.76074,-15.23828 C 148.76074,-15.23828 22.75098,-15.23828 22.75098,-15.23828 C 22.75098,-15.23828 22.75098,-96.62694 22.75098,-96.62694 C 22.75098,-96.62694 148.76074,-96.62694 148.76074,-96.62694 C 148.76074,-96.62694 148.76074,-15.23828 148.76074,-15.23828 z"
                     id="path2484"
                     style="fill:#e8b500;fill-opacity:1;fill-rule:nonzero;stroke:none" /></g></g></g></g></g></g></g></g></svg>