<?xml version="1.0" encoding="UTF-8" standalone="no"?>
<!-- Created with Inkscape (http://www.inkscape.org/) -->

<svg
   xmlns:dc="http://purl.org/dc/elements/1.1/"
   xmlns:cc="http://creativecommons.org/ns#"
   xmlns:rdf="http://www.w3.org/1999/02/22-rdf-syntax-ns#"
   xmlns:svg="http://www.w3.org/2000/svg"
   xmlns="http://www.w3.org/2000/svg"
   xmlns:sodipodi="http://sodipodi.sourceforge.net/DTD/sodipodi-0.dtd"
   xmlns:inkscape="http://www.inkscape.org/namespaces/inkscape"
   width="1052.3622"
   height="744.09448"
   id="svg2"
   version="1.1"
   inkscape:version="0.47 r22583"
   sodipodi:docname="esquimaux.svg"
   inkscape:export-filename="/home/fred/Documents/INUITS/esquimaux_page.png"
   inkscape:export-xdpi="78.889999"
   inkscape:export-ydpi="78.889999">
  <defs
     id="defs4">
    <inkscape:perspective
       sodipodi:type="inkscape:persp3d"
       inkscape:vp_x="0 : 526.18109 : 1"
       inkscape:vp_y="0 : 1000 : 0"
       inkscape:vp_z="744.09448 : 526.18109 : 1"
       inkscape:persp3d-origin="372.04724 : 350.78739 : 1"
       id="perspective10" />
    <inkscape:perspective
       id="perspective2824"
       inkscape:persp3d-origin="0.5 : 0.33333333 : 1"
       inkscape:vp_z="1 : 0.5 : 1"
       inkscape:vp_y="0 : 1000 : 0"
       inkscape:vp_x="0 : 0.5 : 1"
       sodipodi:type="inkscape:persp3d" />
  </defs>
  <sodipodi:namedview
     id="base"
     pagecolor="#ffffff"
     bordercolor="#666666"
     borderopacity="1.0"
     inkscape:pageopacity="0.0"
     inkscape:pageshadow="2"
     inkscape:zoom="0.7"
     inkscape:cx="581.12999"
     inkscape:cy="472.41155"
     inkscape:document-units="px"
     inkscape:current-layer="layer1"
     showgrid="false"
     inkscape:window-width="1119"
     inkscape:window-height="724"
     inkscape:window-x="0"
     inkscape:window-y="25"
     inkscape:window-maximized="0" />
  <metadata
     id="metadata7">
    <rdf:RDF>
      <cc:Work
         rdf:about="">
        <dc:format>image/svg+xml</dc:format>
        <dc:type
           rdf:resource="http://purl.org/dc/dcmitype/StillImage" />
        <dc:title></dc:title>
      </cc:Work>
    </rdf:RDF>
  </metadata>
  <g
     inkscape:label="Layer 1"
     inkscape:groupmode="layer"
     id="layer1"
     transform="translate(0,-308.2677)">
    <path
       sodipodi:type="arc"
       style="opacity:0.4481328;fill:#ebda3e;fill-opacity:1;stroke:#3d67d5;stroke-width:1;stroke-linejoin:round;stroke-miterlimit:4;stroke-opacity:1;stroke-dasharray:3, 1;stroke-dashoffset:0"
       id="path3612"
       sodipodi:cx="130"
       sodipodi:cy="121.23734"
       sodipodi:rx="81.428574"
       sodipodi:ry="80"
       d="m 211.42857,121.23734 a 81.428574,80 0 1 1 -162.857144,0 81.428574,80 0 1 1 162.857144,0 z"
       transform="matrix(1.2203081,0,0,1.2203081,27.980913,502.88461)" />
    <g
       id="g2830"
       transform="matrix(1.2203081,0,0,1.2203081,-174.24159,8.1588197)"
       style="opacity:0.4481328">
      <path
         style="fill:#d4d4d4"
         d="m 467.53673,676.77168 c -0.88756,-0.35819 -1.07347,-1.99923 -0.64245,-5.67105 0.54393,-4.63372 0.20022,-5.9927 -3.33027,-13.16701 -2.16524,-4.4 -5.114,-9.71399 -6.5528,-11.80887 -1.91205,-2.78393 -2.79993,-5.67544 -3.29951,-10.74545 -0.694,-7.04295 -0.83878,-7.32515 -7.55758,-14.7305 -2.51891,-2.7763 -3.47475,-3.19838 -6.17435,-2.72645 -1.75673,0.3071 -11.22462,0.7194 -21.03976,0.91623 -22.43242,0.44984 -22.11085,0.25007 -18.16093,11.28259 1.61357,4.50688 2.99464,10.77426 3.26404,14.81245 0.56542,8.47533 -0.0808,9.26759 -10.25741,12.57469 -6.05667,1.96825 -8.87876,2.2532 -20.94137,2.11445 -7.66776,-0.0882 -15.46639,-0.66365 -17.33029,-1.2788 -2.24737,-0.7417 -7.07215,-0.87783 -14.32335,-0.40413 l -10.93442,0.7143 -5.60379,-4.32329 c -7.78863,-6.00889 -8.47093,-7.87563 -4.5223,-12.37288 4.27697,-4.87119 4.73724,-7.46376 2.20596,-12.42548 -2.4366,-4.77612 -2.94959,-12.3022 -1.33348,-19.56325 0.94495,-4.2456 0.84518,-5.47633 -0.68903,-8.5 -1.53604,-3.02727 -1.64326,-4.36072 -0.74578,-9.27436 0.88646,-4.8533 0.802,-6.01079 -0.54738,-7.50183 -4.88292,-5.39557 -4.11903,-14.10195 1.61272,-18.38093 4.9225,-3.67483 20.20032,-9.87849 24.3279,-9.87849 2.77688,0 8.32461,-2.61949 8.32461,-3.93066 0,-0.48361 -2.04861,-2.07986 -4.55247,-3.54722 -6.2639,-3.67089 -7.27571,-6.96328 -4.8266,-15.7056 0.25939,-0.92591 2.83527,-3.25238 5.72417,-5.16992 6.60752,-4.38582 13.88739,-12.20032 13.45574,-14.44392 -0.27658,-1.43758 -1.72677,-1.72871 -9.31421,-1.86986 -4.94265,-0.0919 -15.89725,-0.63485 -24.34357,-1.20644 l -15.35695,-1.03926 -6.54918,-4.79356 c -9.79407,-7.16859 -10.64644,-8.67408 -10.4388,-18.43748 0.1905,-8.95774 1.58601,-12.29123 5.81927,-13.90071 5.6763,-2.15813 53.02003,0.009 57.0802,2.61275 4.08067,2.61693 6.92541,-0.58067 6.41167,-7.20698 -0.34898,-4.50122 6.71875,-18.0696 11.80686,-22.6664 2.2493,-2.03211 4.49643,-3.69474 4.99363,-3.69474 1.69185,0 9.11563,-9.77025 8.54792,-11.24969 -0.30679,-0.79949 -2.57095,-2.96201 -5.03145,-4.80558 -2.89962,-2.1726 -5.34491,-5.19367 -6.94993,-8.58642 -2.88526,-6.09892 -2.97144,-7.35977 -1.01617,-14.86656 0.80308,-3.08321 1.96076,-9.26215 2.57262,-13.73098 1.09068,-7.96582 3.5163,-14.42965 6.14416,-16.37303 2.43064,-1.79752 12.26237,-5.34593 17.59819,-6.35143 4.29286,-0.80896 6.8066,-0.62689 13.5,0.97781 4.52369,1.08453 9.93475,1.97502 12.02456,1.97887 5.24574,0.01 9.31259,2.36658 11.69481,6.77762 1.10776,2.05116 2.97515,4.93356 4.14976,6.40532 1.66114,2.08135 2.30474,4.74766 2.89659,12 0.50565,6.19599 1.71019,11.90258 3.59045,17.01 l 2.82951,7.68594 -2.25427,4.31406 c -1.23986,2.37274 -3.36853,5.84312 -4.7304,7.71195 -3.83005,5.25586 -3.35898,6.10212 3.39677,6.10212 3.67805,0 7.54463,0.73949 10.34609,1.97871 2.46027,1.0883 7.80497,2.25826 11.87712,2.59993 4.07215,0.34166 9.04292,1.03053 11.04616,1.53081 5.80098,1.44873 13.75793,11.38114 12.25504,15.2976 -0.30063,0.78343 -2.4255,2.69756 -4.72194,4.25363 -6.96667,4.72061 -14.0715,10.45989 -15.53475,12.54897 -1.19837,1.71092 -1.16056,2.1978 0.28215,3.63302 1.45219,1.44466 4.64374,1.66349 24.87161,1.70537 12.7631,0.0264 31.43074,0.42881 41.48364,0.8942 l 18.278,0.84615 3.91942,3.80366 c 2.40218,2.33124 4.35235,5.41148 5.03781,7.95709 1.02244,3.79706 0.89826,4.47108 -1.44741,7.85589 -1.68316,2.4288 -2.57109,5.06001 -2.58113,7.64872 -0.008,2.17044 -0.34592,4.46294 -0.75,5.09446 -0.48979,0.76545 -5.23485,1.17091 -14.23469,1.21632 -7.425,0.0375 -15.975,0.10416 -19,0.14822 -3.025,0.0441 -17.11452,0.0332 -31.31004,-0.0241 -26.17381,-0.10563 -31.08751,0.42775 -34.93996,3.79272 -2.17556,1.90028 -2.27167,6.55407 -0.17857,8.64716 0.86428,0.86429 2.97114,1.57143 4.6819,1.57143 1.71076,0 6.51612,0.85903 10.67857,1.90895 4.16246,1.04992 11.07102,2.39634 15.35236,2.99204 10.4671,1.45637 13.03041,2.949 16.0281,9.33329 5.40602,11.51337 5.92337,14.28879 5.16586,27.71314 -0.74863,13.26712 -1.86858,16.42487 -8.25212,23.26728 -3.52134,3.77446 -3.48114,9.60415 0.11574,16.7853 2.30148,4.59488 4.32531,6.65197 12.29795,12.5 10.11952,7.4228 13.34604,11.69438 13.37731,17.71016 0.0157,3.0171 1.84147,10.70917 5.11562,21.55218 1.19041,3.9423 1.12745,4.42194 -0.8386,6.38798 -1.87876,1.87877 -4.18464,2.28926 -19.85367,3.53432 -10.00421,0.79494 -19.24348,2.04187 -21.20636,2.86202 -2.50366,1.04609 -7.29707,1.43122 -17.10621,1.37439 -7.49534,-0.0434 -14.18992,-0.30577 -14.87686,-0.58299 z M 376.28571,507.49264 c 0,-0.51754 -0.45,-1.2191 -1,-1.55902 -0.55,-0.33992 -1,0.0835 -1,0.94098 0,0.85746 0.45,1.55902 1,1.55902 0.55,0 1,-0.42344 1,-0.94098 z m 18,-11.55902 c 0,-0.825 -0.42344,-1.5 -0.94098,-1.5 -1.26098,0 -2.1641,1.56159 -1.36517,2.36052 1.12619,1.12618 2.30615,0.68589 2.30615,-0.86052 z m 59.41373,-3.36041 c 0.51025,-0.82561 -4.43914,-3.33553 -9.17406,-4.65232 -2.61881,-0.7283 -13.63073,0.455 -12.719,1.36673 2.98779,2.9878 20.45683,5.60945 21.89306,3.28559 z m -23.9804,-6.25316 c 1.68402,-1.53924 -0.25458,-2.12738 -4.05199,-1.22932 -5.16592,1.22171 -5.74335,3.4249 -0.69728,2.66048 2.09877,-0.31793 4.23594,-0.96196 4.74927,-1.43116 z m -3.92896,-10.89349 c 0.79429,-1.2852 -2.01458,-2.39487 -4.06775,-1.60699 -2.00377,0.76892 -0.90026,2.61405 1.56338,2.61405 1.03508,0 2.16205,-0.45318 2.50437,-1.00706 z"
         id="path2836" />
      <path
         style="fill:#cacaca"
         d="m 468.3736,676.70664 c -1.78199,-0.33585 -2.05835,-0.67324 -1.05793,-1.29154 2.71343,-1.67699 1.42689,-9.90309 -2.96865,-18.98148 -2.26352,-4.675 -5.00185,-9.88908 -6.08517,-11.58685 -1.08332,-1.69777 -2.22518,-5.29777 -2.53746,-8 -0.84253,-7.29046 -1.31098,-9.13512 -2.69018,-10.59322 -6.71753,-7.10185 -7.77392,-12.48646 -2.55264,-13.01118 2.67934,-0.26927 3.10435,-0.72762 3.32392,-3.5847 0.31517,-4.10095 -2.32525,-5.95469 -5.76978,-4.05074 -2.08026,1.14986 -8.95568,1.57914 -35.25,2.20089 -6.39935,0.15132 -9.662,-0.20195 -11.29096,-1.22254 -1.82636,-1.14427 -2.81235,-1.1978 -4.86193,-0.26395 -1.9602,0.89312 -2.90515,0.89405 -3.97774,0.004 -0.98479,-0.8173 -3.12602,-0.91729 -7.13808,-0.33333 -10.53621,1.53355 -24.34226,1.12819 -28.43881,-0.83501 -4.35553,-2.0873 -5.43873,-3.47699 -3.90535,-5.01037 0.61208,-0.61221 1.11287,-1.99274 1.11287,-3.06799 0,-1.83155 -0.11561,-1.85036 -1.83115,-0.29782 -1.00714,0.91145 -2.13214,1.35619 -2.5,0.98833 -1.31881,-1.31881 -0.66661,-6.39915 0.89861,-6.99978 1.57609,-0.6048 5.85053,1.14372 8.1899,3.35019 1.71511,1.61768 8.21869,0.52349 10.80709,-1.81823 2.1744,-1.96717 5.43555,-2.52317 5.43555,-0.92672 0,0.51754 -0.44665,1.21703 -0.99256,1.55442 -0.60813,0.37585 -0.23543,2.09753 0.96226,4.44521 1.621,3.17743 2.56932,3.90351 5.55327,4.25186 1.97914,0.23106 3.78792,0.11352 4.0195,-0.26118 0.23158,-0.37471 1.6224,-0.68129 3.0907,-0.68129 1.46908,0 3.38856,-0.89877 4.26824,-1.99853 2.07339,-2.59213 8.96678,-3.75854 9.7744,-1.65391 0.48991,1.2767 0.803,1.2906 2.19775,0.0976 2.3175,-1.98227 5.10143,-2.96376 9.12644,-3.21759 4.38775,-0.2767 5.42951,0.29997 3.89094,2.15383 -1.9608,2.36262 0.33235,3.58428 7.2341,3.85394 3.59152,0.14032 6.44735,0.73181 6.66345,1.38011 0.208,0.624 1.19253,1.13454 2.18785,1.13454 1.90579,10e-6 3.02366,-1.87876 3.02366,-5.08178 0,-1.07716 0.689,-1.91821 1.57143,-1.91821 0.86428,0 2.24643,-0.675 3.07143,-1.5 0.825,-0.825 2.87034,-1.5 4.5452,-1.5 2.55287,0 2.96065,0.32335 2.52219,2 -0.39426,1.50767 -0.0307,2 1.47699,2 1.159,0 2.21993,-0.841 2.52301,-2 0.36372,-1.39085 1.36402,-2 3.28426,-2 4.02503,0 10.00549,-2.76427 10.00549,-4.62471 0,-1.2787 -0.68596,-1.46919 -3.43405,-0.95364 -3.31828,0.62251 -3.43112,0.54077 -3.3468,-2.42476 0.048,-1.68794 0.78456,-3.45921 1.63682,-3.93616 2.63018,-1.47193 -0.56505,-4.36891 -4.04996,-3.67193 -3.59523,0.71904 -3.53011,0.23118 0.44399,-3.32622 2.84921,-2.55046 3.44469,-2.73371 4.82874,-1.48591 2.27856,2.05425 5.02332,1.74905 5.64485,-0.62766 0.33056,-1.26409 1.65111,-2.27395 3.44189,-2.63211 1.59805,-0.31961 3.3554,-1.42166 3.90522,-2.449 1.15192,-2.15238 3.13711,-2.37958 5.87144,-0.67196 1.55349,0.97017 2.57472,0.84065 5.40973,-0.6861 2.59594,-1.398 3.83594,-1.59997 4.82143,-0.7853 1.01412,0.83834 2.13999,0.29316 4.77856,-2.3139 1.89853,-1.87585 3.81103,-3.41064 4.25,-3.41064 2.08159,0 0.42464,4.6607 -2.75468,7.74842 -3.28783,3.1931 -3.76815,3.36127 -6.43965,2.2547 -3.64158,-1.50839 -5.00753,-0.67481 -5.00753,3.0559 0,1.94754 0.50669,2.94098 1.5,2.94098 2.02148,0 1.89008,1.337 -0.32874,3.34501 -2.57316,2.32868 -3.17126,2.08165 -3.17126,-1.30983 0,-1.90777 -0.68962,-3.33389 -1.93426,-4 -2.64707,-1.41667 -2.57315,-1.4436 -6.07747,2.21482 -2.78969,2.91236 -3.06908,3.75227 -2.68935,8.0846 0.28932,3.30081 0.0231,4.98832 -0.83904,5.31917 -1.80517,0.69271 -2.47328,4.09022 -1.0385,5.28099 0.8328,0.69116 1.82592,0.58032 3.15754,-0.35238 1.10077,-0.77101 4.69927,-1.39947 8.30371,-1.45021 6.68801,-0.0941 9.11737,-1.20286 9.11737,-4.161 0,-1.32353 -0.54545,-1.64129 -2.11349,-1.23124 -1.89694,0.49606 -1.99517,0.33162 -0.95876,-1.60494 0.6351,-1.18669 1.02367,-2.94003 0.86349,-3.8963 -0.22961,-1.37078 0.43591,-1.73869 3.14519,-1.73869 3.04929,0 3.53291,0.37233 4.29281,3.30485 0.85268,3.29061 0.87666,3.30188 5.56357,2.61465 2.58895,-0.37961 5.06705,-1.30429 5.50688,-2.05485 0.43983,-0.75056 1.87577,-1.36465 3.19098,-1.36465 2.71094,0 4.21252,-1.69681 2.77432,-3.13501 -0.61432,-0.61432 -1.91855,-0.52433 -3.61709,0.24958 -3.57195,1.62748 -4.50495,0.40418 -1.53956,-2.01858 1.87475,-1.5317 2.13066,-2.21956 1.18404,-3.18263 -0.91823,-0.93418 -1.54175,-0.95129 -2.60196,-0.0714 -1.02656,0.85196 -2.2147,0.87123 -4.50442,0.073 l -3.11007,-1.08418 2.21204,-2.33896 c 2.49646,-2.63972 9.76206,-3.84176 10.4655,-1.73144 0.22726,0.68177 1.2757,1.23958 2.32986,1.23958 1.70635,0 1.91667,0.76812 1.91667,7 0,4 -0.42857,7 -1,7 -0.55,0 -1.00689,0.5625 -1.01531,1.25 -0.0281,2.29565 -1.74114,4.01133 -4.12483,4.13127 -2.0309,0.10218 -2.47407,0.81573 -3.17916,5.11873 -1.62272,9.90305 -2.66267,12.54265 -5.34306,13.56173 -2.10791,0.80143 -2.34099,1.22931 -1.33191,2.44518 0.74952,0.90311 2.11136,1.25082 3.51711,0.898 2.10956,-0.52946 2.26744,-0.28997 1.96363,2.97887 -0.1817,1.95504 -0.62923,4.0382 -0.99451,4.62923 -1.09901,1.77823 1.53118,3.96705 5.53663,4.60755 3.7314,0.59668 3.77584,0.65858 4.47189,6.22959 0.77117,6.17226 3.6362,11.14985 6.41768,11.14985 1.56295,0 1.73094,-0.76525 1.36676,-6.22603 -0.22836,-3.42432 -0.94839,-6.87858 -1.60006,-7.67614 -0.65167,-0.79756 1.29014,0.10799 4.31514,2.01234 6.09784,3.83881 10,9.92125 10,15.58737 0,1.80057 0.53795,5.2851 1.19545,7.7434 1.03877,3.88385 0.97295,4.7155 -0.50218,6.3455 -1.84551,2.03927 -1.3462,3.21356 1.36641,3.21356 1.72271,0 2.94032,1.89736 2.94032,4.58179 0,0.78001 -0.68912,1.41821 -1.53138,1.41821 -0.84227,0 -1.79783,0.69434 -2.12348,1.54297 -0.42402,1.10497 -1.90544,1.51499 -5.21862,1.44439 -4.709,-0.10034 -22.08011,1.45689 -27.74795,2.48746 -1.71678,0.31216 -4.18793,1.49255 -5.49145,2.62308 -1.78485,1.54799 -3.11286,1.89012 -5.37858,1.38564 -5.28611,-1.17699 -9.47699,-1.3436 -10.0602,-0.39995 -0.56803,0.91909 -9.84004,1.0414 -14.36045,0.18943 z m 62.3694,-9.20392 c 0.31644,-0.512 0.11799,-1.21356 -0.44098,-1.55902 -0.55897,-0.34546 -1.01631,0.0734 -1.01631,0.9309 0,1.75653 0.60006,2.01516 1.45729,0.62812 z m -0.95729,-19.0418 c 0,-1.57461 -6.20425,-3.31485 -7.03363,-1.97288 -0.69146,1.11881 3.69536,4.05568 5.53363,3.70463 0.825,-0.15754 1.5,-0.93683 1.5,-1.73175 z m 1.5,-9.08632 c 0,-2.08629 -1.47115,-2.6057 -2.5296,-0.89309 -0.90709,1.46771 0.30138,4.21119 1.52254,3.45648 0.55388,-0.34232 1.00706,-1.49585 1.00706,-2.56339 z m -31,-8.77431 c 0,-1.30208 -1.18877,-2.16804 -2.15579,-1.57039 -1.03422,0.63919 -0.14245,2.40372 1.21481,2.40372 0.51754,0 0.94098,-0.375 0.94098,-0.83333 z m -34.18045,-4.33834 c -0.40184,-2.73089 -1.86803,-3.24459 -4.26276,-1.49351 -2.33893,1.71026 -1.23389,3.66518 2.07178,3.66518 2.00812,0 2.44658,-0.4346 2.19098,-2.17167 z m 27.18045,0.8839 c 0,-0.70828 -1.31594,-2.84578 -2.92431,-4.75 -2.72839,-3.23027 -3.03781,-3.35141 -4.61833,-1.80819 -1.96643,1.92003 -1.182,3.84596 1.56647,3.84596 1.04819,0 2.38747,0.9 2.97617,2 1.20308,2.24797 3,2.67458 3,0.71223 z m 0.49047,-12.33802 c 1.93946,-2.96 0.78029,-4.51928 -2.6858,-3.61288 -2.53988,0.66419 -3.36738,2.85572 -1.7941,4.7514 1.72232,2.07527 2.50436,1.87652 4.4799,-1.13852 z M 479.743,611.50272 c 0.71756,-1.16104 -0.0927,-1.64848 -4.20729,-2.53096 -3.79509,-0.81396 -4.54392,1.00622 -1,2.4307 2.98639,1.20038 4.50926,1.2297 5.20729,0.10026 z m -20.83158,-2.53611 c 1.00232,-2.612 -0.005,-3.70755 -2.04002,-2.2193 -1.04093,0.76114 -1.57121,1.90072 -1.17945,2.53461 0.98493,1.59364 2.5456,1.44079 3.21947,-0.31531 z m 18.87429,-3.53299 c 0.33992,-0.55 0.14148,-1 -0.44098,-1 -0.58246,0 -1.05902,0.45 -1.05902,1 0,0.55 0.19844,1 0.44098,1 0.24254,0 0.7191,-0.45 1.05902,-1 z m -109.04501,-3.75 c 0.50714,-1.67857 0.27375,-2.25 -0.91899,-2.25 -1.92249,0 -2.99279,2.36723 -2.11021,4.66722 0.73988,1.92809 2.02658,0.90133 3.0292,-2.41722 z m 44.93802,-1.83179 c 1.10299,-2.87433 0.64267,-3.41821 -2.89301,-3.41821 -3.92618,0 -4.23484,0.53053 -1.84501,3.17126 2.03451,2.24811 3.93215,2.34702 4.73802,0.24695 z m 46.60699,-4.91821 c 0,-0.825 -0.675,-1.5 -1.5,-1.5 -1.56157,0 -1.98397,1.1827 -0.83333,2.33333 1.15063,1.15064 2.33333,0.72824 2.33333,-0.83333 z m -101.5,62.13728 c -3.85,-0.55319 -11.95547,-0.89521 -18.01216,-0.76005 l -11.01216,0.24574 -5.23784,-4.69425 c -2.88081,-2.58184 -5.23784,-5.13224 -5.23784,-5.66756 0,-0.53533 1.06697,-1.8126 2.37103,-2.83838 3.71984,-2.92602 4.78562,-8.85702 2.50638,-13.94787 -1.42183,-3.17575 -1.72238,-5.44263 -1.25211,-9.44393 l 0.61882,-5.26511 2.86397,1.08103 c 2.16509,0.81723 3.17113,0.77388 4.12264,-0.17763 1.01154,-1.01154 0.48204,-1.91066 -2.69699,-4.57962 -3.73809,-3.13832 -3.83612,-3.3589 -1.78246,-4.01071 1.19524,-0.37936 2.97767,-0.28113 3.96095,0.21828 0.98327,0.4994 3.81277,0.86076 6.28777,0.80301 3.54603,-0.0828 4.44434,-0.4466 4.23746,-1.71634 -0.20432,-1.254 0.35009,-1.49643 2.5,-1.09317 1.5194,0.28499 3.75525,1.16245 4.96856,1.94992 1.21332,0.78746 2.62466,1.17302 3.13631,0.8568 0.51166,-0.31622 1.16432,0.31999 1.45036,1.41381 0.28604,1.09381 1.04252,1.98875 1.68108,1.98875 0.70593,0 0.91219,-0.78393 0.52623,-2 -0.49505,-1.55976 -0.1797,-2 1.43261,-2 1.18608,0 2.06739,0.6501 2.06739,1.525 0,0.89678 1.24442,1.77388 3.02081,2.12916 1.66144,0.33229 3.26754,1.00338 3.5691,1.49131 0.30156,0.48794 0.91797,0.65868 1.3698,0.37943 0.45184,-0.27925 1.58299,0.65441 2.51366,2.07481 1.6613,2.53545 1.87497,2.57631 11.72047,2.24141 9.92325,-0.33755 10.05673,-0.37517 12.74006,-3.59112 3.21093,-3.84826 3.82161,-3.99207 4.24655,-1 0.24752,1.74283 1.07724,2.32251 3.68095,2.57167 l 3.3614,0.32166 -3.3614,1.67834 c -4.46881,2.23125 -4.72079,5.23796 -1.30098,15.52318 2.64712,7.96128 3.62529,16.9295 2.11324,19.37479 -0.4148,0.67081 -3.99856,2.22501 -7.96392,3.45378 -8.20653,2.54302 -23.32469,3.17157 -35.20974,1.46386 z m -22.5,-5.55782 c 0,-0.5063 -1.35,-1.21706 -3,-1.57946 -2.06324,-0.45316 -3,-1.25861 -3,-2.57946 0,-2.2681 -2.24808,-2.53147 -3.96365,-0.46434 -1.65784,1.99758 -0.45568,3.54074 2.77267,3.55911 1.48004,0.008 3.36598,0.45153 4.19098,0.98469 1.90073,1.22834 3,1.25746 3,0.0795 z m 17.25,-21.37972 c 2.31982,-0.84438 2.21606,-2.37994 -0.25,-3.69974 -1.1,-0.5887 -2,-1.94416 -2,-3.01213 0,-2.61509 -4.6748,-5.71307 -6.2476,-4.14027 -0.85988,0.85988 -0.70013,1.47013 0.64165,2.45127 1.61794,1.18307 1.63758,1.42999 0.20808,2.61637 -1.3335,1.10671 -1.66909,1.02094 -2.16245,-0.55262 -1.22193,-3.89737 -2.24849,-4.90312 -6.36148,-6.23257 -5.35231,-1.73004 -7.17996,-0.46049 -4.72685,3.28342 0.90676,1.38389 1.64865,3.13786 1.64865,3.89771 0,2.84491 3.17394,7.68882 5.03806,7.68882 1.04036,0 2.37743,0.90784 2.97126,2.01742 1.05873,1.97825 1.16134,1.96211 5.28519,-0.83164 2.31302,-1.56699 4.99299,-3.1357 5.95549,-3.48604 z m 57.22301,-13.65607 c 0.32507,-0.52598 1.25163,-0.70283 2.05902,-0.39301 2.06711,0.79323 1.82352,1.34934 -0.59105,1.34934 -1.13246,0 -1.79305,-0.43035 -1.46797,-0.95633 z m 14.52699,-1.04367 c 0,-0.55 1.74856,-1 3.88569,-1 2.13713,0 5.17463,-0.67223 6.75,-1.49384 3.78367,-1.97332 5.08748,-1.89194 6.31081,0.39388 0.77904,1.45564 0.6512,2.04036 -0.5466,2.5 -2.64123,1.01353 -16.3999,0.67792 -16.3999,-0.40004 z m -83.23182,-14.63211 c -3.28605,-1.38008 -3.60348,-1.80712 -2.65736,-3.57495 0.76931,-1.43747 0.76414,-2.31797 -0.0182,-3.1003 -1.63261,-1.63261 -1.32361,-2.69264 0.78492,-2.69264 2.4006,0 5.21479,3.12587 3.37244,3.74595 -2.78999,0.93903 -1.12739,3.25002 2.78867,3.87622 2.30126,0.36799 3.88079,1.12591 3.67167,1.76182 -0.5654,1.71933 -3.82576,1.71272 -7.94216,-0.0161 z m 40.73182,-2.353 c -2.34145,-0.41719 -3,-1.05602 -3,-2.91016 0,-1.56033 0.78331,-2.66539 2.28244,-3.21995 1.91952,-0.71008 2.4427,-0.4228 3.29035,1.80667 1.47614,3.88254 0.85077,4.93343 -2.57279,4.32344 z m -50.5,-1.50077 c -1.925,-0.65515 -3.6455,-1.93884 -3.82332,-2.85265 -0.38502,-1.97851 0.1982,-2.02342 4.91791,-0.37876 2.62129,0.91343 3.43359,1.68176 3,2.83759 -0.50838,1.35518 -1.10206,1.41228 -4.09459,0.39382 z m 89.27189,-0.49027 -2.2281,-1.80898 2.2281,-1.64579 c 1.31795,-0.97351 1.77543,-1.8491 1.11992,-2.1435 -0.6095,-0.27374 -1.93872,-1.10501 -2.95382,-1.84726 -1.64769,-1.20483 -1.15349,-1.44804 4.60819,-2.26785 3.5496,-0.50506 7.01632,-0.73338 7.70382,-0.50739 2.0857,0.68561 1.4812,4.98877 -0.80265,5.71363 -1.65627,0.52568 -1.82186,0.92957 -0.8575,2.09155 1.68361,2.02862 0.64956,2.62336 -2.48744,1.43068 -2.25672,-0.85801 -2.78656,-0.71909 -3.38869,0.88843 -0.69052,1.84352 -0.78615,1.84665 -2.94183,0.0965 z m -32.64295,-2.53777 c -2.41622,-2.41622 -1.9807,-4.37273 1.12106,-5.03624 1.5125,-0.32354 3.82396,-1.02547 5.13658,-1.55984 1.31262,-0.53437 4.35012,-0.67713 6.75,-0.31725 4.9729,0.74573 5.26227,0.37862 2.11342,-2.68129 -1.43637,-1.39579 -1.67911,-1.98742 -0.67127,-1.63606 0.8683,0.30271 3.76808,0.14137 6.44396,-0.35854 3.15451,-0.58933 5.21899,-0.55518 5.87128,0.0971 0.67471,0.67471 0.46804,1.00603 -0.62755,1.00603 -1.03871,0 -1.7488,1.00141 -1.95,2.75 -0.25923,2.25295 -1.12978,3.03713 -4.81642,4.33857 -2.475,0.87372 -5.175,1.85544 -6,2.18161 -0.825,0.32616 -3.075,0.78023 -5,1.00904 -1.925,0.22881 -4.22948,0.73547 -5.12106,1.12591 -0.97481,0.42688 -2.27045,0.0605 -3.25,-0.91905 z m -5.54999,-5.06941 c 0.048,-1.16495 0.28494,-1.4019 0.60416,-0.60417 0.28887,0.72187 0.25335,1.58437 -0.079,1.91667 -0.33229,0.33229 -0.56864,-0.25834 -0.52522,-1.3125 z m -52.04999,-0.37761 c -0.80907,-0.51167 -1.18048,-1.22087 -0.82536,-1.57599 0.96371,-0.96372 4.91728,0.53232 4.2519,1.60893 -0.71714,1.16036 -1.55236,1.15233 -3.42654,-0.0329 z m 44.50412,-3.07561 c 1.80331,-1.99264 3.47332,-2.57847 3.45912,-1.21345 -0.004,0.4125 -1.18415,1.29605 -2.62191,1.96345 -2.55616,1.18654 -2.57472,1.16992 -0.83721,-0.75 z m 102.15442,0.39072 c -1.41552,-1.41552 -0.61453,-3.35417 1.38582,-3.35417 1.39797,0 1.96801,0.54305 1.75,1.66713 -0.35694,1.84048 -2.064,2.75886 -3.13582,1.68704 z m -27.03291,-3.89643 c 0.65496,-1.70679 2.49904,-1.49685 3.11624,0.35476 0.21982,0.65946 -0.5166,1.1875 -1.65611,1.1875 -1.43811,0 -1.87491,-0.46137 -1.46013,-1.54226 z m -25.52288,-2.84747 c 0.59886,-1.31435 2.17325,-2.88382 3.49864,-3.48771 1.32539,-0.60389 2.83963,-2.22851 3.36498,-3.61027 1.14076,-3.00043 4.00467,-3.36679 4.00467,-0.51229 0,1.23706 0.66757,2.00103 1.75,2.0027 1.20461,0.002 0.34756,1.23519 -2.75,3.95737 -3.2028,2.81466 -5.43069,3.96695 -7.72856,3.99729 -3.04548,0.0402 -3.16682,-0.0929 -2.13973,-2.34709 z m -67.46504,-0.27694 c -0.36667,-0.36666 -0.66667,-1.98379 -0.66667,-3.59362 0,-2.05098 -0.57785,-3.07806 -1.9308,-3.43187 -2.32349,-0.6076 -1.63235,-3.30784 0.84666,-3.30784 0.93603,0 2.51986,0.59812 3.51962,1.32917 1.59167,1.16385 1.65214,1.63025 0.48624,3.75 -0.73233,1.33145 -1.21102,3.20833 -1.06376,4.17083 0.28261,1.84705 -0.0893,2.18529 -1.19129,1.08333 z m 88.04229,-2.08333 c -1.31232,-2.40601 0.11017,-9.32408 2.58413,-12.56762 5.05992,-6.63389 2.67761,-8.64275 -5.02593,-4.23806 -2.32806,1.33113 -4.49212,2.0007 -4.80902,1.48795 -1.09426,-1.77055 -3.65457,-0.91998 -7.72917,2.56773 -2.24893,1.925 -4.79547,3.50277 -5.65897,3.50616 -0.8635,0.003 -2.90896,0.70434 -4.54547,1.55767 -1.6365,0.85333 -3.71186,1.35894 -4.6119,1.12357 -2.87806,-0.75263 -13.29923,1.35249 -15.19686,3.06983 -1.47996,1.33934 -2.1585,1.4249 -3.52431,0.44437 -3.304,-2.37199 -4.49037,-2.49543 -7.6467,-0.79564 -2.08076,1.12056 -4.12994,1.48527 -5.87889,1.04632 -4.44586,-1.11584 -3.95507,-2.22483 1.30474,-2.94824 4.76692,-0.65562 4.99974,-0.83521 5.63134,-4.34397 0.80326,-4.46243 2.04905,-6.16007 4.52049,-6.16007 2.72788,0 2.30413,-2.85483 -0.5293,-3.56598 -1.32377,-0.33224 -3.31919,-0.11582 -4.43426,0.48095 -1.11507,0.59677 -3.14551,1.08503 -4.5121,1.08503 -1.36659,0 -3.8935,0.7875 -5.61537,1.75 -3.00167,1.67789 -3.1877,1.67376 -4.51451,-0.10014 -0.7611,-1.01757 -1.88562,-1.54001 -2.49892,-1.16097 -0.81467,0.50349 -0.80245,1.06588 0.0453,2.0874 2.16703,2.61112 0.31009,4.42371 -4.53194,4.42371 -3.83825,0 -4.53138,-0.30066 -4.53138,-1.96556 0,-1.60356 -0.92084,-2.08771 -5,-2.62883 -5.67103,-0.75229 -6.8602,-3.23702 -2.5,-5.22366 2.82085,-1.28526 3.27438,-4.26471 0.99599,-6.54311 -0.82721,-0.8272 -1.37669,-2.32185 -1.22107,-3.32143 0.78666,-5.05295 4.2492,-5.92572 4.23475,-1.06741 l -0.01,3.25 4.96951,-0.32316 c 6.5575,-0.42642 9.59678,-2.10453 3.88748,-2.14643 -3.63978,-0.0267 -5.35696,-1.14986 -5.35696,-3.50379 0,-1.07509 5.33329,-1.33684 7.6806,-0.37696 1.55067,0.63412 3.85573,1.04953 5.12235,0.92313 1.26662,-0.12639 2.90156,0.26701 3.63321,0.87423 0.99904,0.82913 1.47603,0.72418 1.91567,-0.4215 0.32197,-0.83903 1.73898,-1.52552 3.1489,-1.52552 1.40993,0 4.19414,-0.68132 6.18713,-1.51405 3.29495,-1.37671 3.7909,-1.36265 5.46788,0.15499 1.01434,0.91797 1.84426,2.29973 1.84426,3.07058 0,1.11928 -0.60503,1.04415 -3.00416,-0.37305 -2.92395,-1.72722 -3.06068,-1.71807 -5.12135,0.3426 -2.27071,2.27071 -1.82304,4.31893 0.94398,4.31893 0.93524,0 2.2625,0.9 2.94946,2 0.86657,1.38761 2.33202,2 4.786,2 2.39977,0 4.30833,0.77135 5.93608,2.3991 2.65946,2.65946 8.5556,5.88863 9.33286,5.11137 0.27401,-0.27402 -0.24904,-1.3239 -1.16233,-2.33308 -1.8525,-2.04698 -2.18936,-4.17739 -0.66054,-4.17739 0.55,0 1,-0.45 1,-1 0,-0.55 -0.93032,-1 -2.06739,-1 -1.68422,0 -1.93795,-0.41701 -1.369,-2.25 0.38411,-1.2375 1.31443,-2.60986 2.06738,-3.04969 1.69993,-0.99299 1.77555,-3.89377 0.14405,-5.52527 -0.96661,-0.96661 -0.95947,-1.65008 0.0339,-3.24068 1.484,-2.37626 0.79262,-3.93436 -1.74581,-3.93436 -1.00038,0 -3.33632,-0.63024 -5.19099,-1.40054 -3.38113,-1.40428 -7.98464,-2.0164 -13.12212,-1.74483 -1.98982,0.10519 -2.75,0.67357 -2.75,2.05616 0,1.27604 -1.49905,2.63647 -4.51255,4.09529 l -4.51255,2.18449 -1.94499,-2.34529 c -1.06974,-1.2899 -1.72004,-3.09725 -1.44512,-4.01632 0.57887,-1.93516 -0.72602,-3.26531 -5.52524,-5.6322 -5.41973,-2.6729 -4.86381,-3.87158 1.66668,-3.59371 3.17557,0.13512 6.56586,0.55462 7.53397,0.93222 1.86637,0.72795 8.42345,-3.54729 9.41877,-6.14106 0.64078,-1.66984 13.35737,-1.98031 16.3134,-0.3983 1.36451,0.73027 3.10288,0.46353 6.51716,-1 2.56095,-1.09775 5.85647,-1.96038 7.32338,-1.91696 1.60098,0.0474 2.0675,0.30972 1.16709,0.65628 -0.825,0.31754 -3.187,2.30701 -5.24889,4.42106 l -3.74891,3.84371 4.53028,0 c 3.10442,0 4.71143,-0.47211 5.10587,-1.5 0.31659,-0.825 1.27922,-1.5 2.13919,-1.5 0.85998,0 3.67935,-2.3625 6.26527,-5.25 l 4.70169,-5.25 8.51996,0 c 6.91581,0 8.90924,0.35181 10.58745,1.86852 1.46563,1.32459 2.83792,1.67515 4.71409,1.20427 1.92174,-0.48233 3.0285,-0.17243 4.04096,1.13147 1.32583,1.70749 1.49025,1.68264 3.34566,-0.50574 1.81711,-2.14319 2.2469,-2.21982 6.24934,-1.11427 4.53213,1.25187 4.4524,1.3931 -1.3302,2.35632 -4.9027,0.81666 -8.87178,4.62463 -8.87178,8.51168 0,2.02104 -0.49745,3.04775 -1.47666,3.04775 -1.53493,0 -5.93488,7.92179 -4.94805,8.90862 0.30882,0.30882 1.31822,-0.37904 2.2431,-1.52858 2.48977,-3.09455 4.16083,-3.34318 11.77347,-1.75171 11.50943,2.40613 15.53424,3.12091 24.53336,4.35698 9.41755,1.29354 14.26323,3.57838 16.08945,7.58649 0.89925,1.97364 0.89827,3.0177 -0.004,4.46276 -0.64793,1.03751 -0.94653,2.48975 -0.66354,3.2272 0.32441,0.84539 -0.79008,1.85271 -3.01621,2.72618 -1.94191,0.76194 -3.53074,1.6989 -3.53074,2.08213 0,0.38323 -1.11508,0.90994 -2.47796,1.17047 -2.70332,0.51677 -4.07622,-1.6328 -2.93773,-4.59966 0.42257,-1.10167 0.10141,-1.64088 -0.9775,-1.64088 -0.88385,0 -1.60699,0.69199 -1.60699,1.53776 0,1.20774 -0.85844,1.43429 -4,1.05562 -2.94574,-0.35507 -4,-0.12296 -4,0.88064 0,0.74953 -1.70006,3.1322 -3.77791,5.29483 -3.12966,3.25734 -3.99439,3.70033 -5.03943,2.5816 -0.69383,-0.74275 -2.36877,-1.35045 -3.72209,-1.35045 -1.35331,0 -2.46057,-0.45 -2.46057,-1 0,-0.55 0.81,-1 1.8,-1 2.4691,0 4.2,-1.9435 4.2,-4.71588 0,-1.91634 -0.47938,-2.27936 -2.77862,-2.10417 -1.52824,0.11645 -3.3554,-0.14474 -4.06035,-0.58043 -1.70808,-1.05565 -7.16103,1.26928 -7.16103,3.05319 0,0.77553 0.675,1.66908 1.5,1.98566 2.41502,0.92674 1.73254,3.81359 -1.45951,6.17357 -1.62773,1.20343 -3.35798,2.18806 -3.84501,2.18806 -0.48703,0 -1.70615,0.9068 -2.70916,2.01511 -1.00301,1.10832 -3.19947,2.37163 -4.88104,2.80737 -2.45798,0.63692 -3.22859,1.51618 -3.93067,4.48488 -0.78595,3.32332 -2.90171,4.89328 -3.96565,2.94264 z m -25.83084,-11.15351 c 1.71012,-1.08317 0.59564,-3.10762 -1.68714,-3.06469 -1.76975,0.0333 -5.19098,2.22697 -5.19098,3.32844 0,0.94866 5.28385,0.74604 6.87812,-0.26375 z m 38.62188,-6.09649 c -0.33992,-0.55 -1.04148,-1 -1.55902,-1 -0.51754,0 -0.94098,0.45 -0.94098,1 0,0.55 0.70156,1 1.55902,1 0.85746,0 1.2809,-0.45 0.94098,-1 z M 433.4066,557.5807 c 1.40115,-1.46025 1.84455,-5.99231 0.62739,-6.41266 -1.72814,-0.59682 -5.9808,1.37341 -7.55498,3.50018 -0.71869,0.97097 -1.73119,1.7654 -2.25,1.7654 -1.5352,0 -1.07426,-3.01251 0.5567,-3.63837 0.825,-0.31659 1.5,-1.42746 1.5,-2.46862 0,-2.88467 -6.56813,-2.62576 -9.05644,0.35699 -2.46101,2.95003 -2.42357,4.10879 0.11133,3.4459 1.50909,-0.39464 2.29083,0.0832 2.94321,1.79911 0.48858,1.28506 1.70138,2.55675 2.69511,2.82599 2.14676,0.58163 9.54203,-0.25091 10.42768,-1.17392 z m 56.48615,-7.84503 c 3.50136,-3.50136 1.19391,-5.81184 -3.37061,-3.37505 -0.95504,0.50985 -2.53414,1.17465 -3.50911,1.47732 -2.25528,0.70014 -3.39502,3.56499 -1.80839,4.54558 1.96621,1.21518 6.07831,-0.0381 8.68811,-2.64785 z m -49.82474,-0.14755 c 0.28658,-0.86063 -0.19425,-1.221 -1.33427,-1 -0.98026,0.19002 -1.98391,0.95098 -2.23033,1.691 -0.28658,0.86063 0.19425,1.221 1.33427,1 0.98026,-0.19002 1.98391,-0.95098 2.23033,-1.691 z m -6.2823,-3.1545 c 0.33992,-0.55 1.94758,-1 3.57259,-1 1.625,0 3.73594,-0.40596 4.69098,-0.90213 0.95504,-0.49618 3.95191,-1.96762 6.65972,-3.26988 7.60541,-3.65765 6.93071,-4.6068 -2.9796,-4.19162 -4.74726,0.19888 -9.06632,0.6304 -9.5979,0.95894 -0.53158,0.32853 -2.31892,0.0371 -3.97188,-0.64754 -2.53775,-1.05117 -3.2506,-0.99966 -4.58132,0.33107 -1.43458,1.43458 -1.24929,1.71241 2.06574,3.09752 3.27765,1.36949 5.13688,4.62364 2.64167,4.62364 -0.55,0 -1,0.45 -1,1 0,0.55 0.42344,1 0.94098,1 0.51754,0 1.2191,-0.45 1.55902,-1 z m -8.5,-2 c 0,-0.77709 -6.17538,-2.05699 -6.87354,-1.4246 -0.20544,0.18609 -0.13463,0.96093 0.15737,1.72187 0.5583,1.45489 6.71617,1.18233 6.71617,-0.29727 z m -42.45888,-14.06653 c 0.36253,-0.58659 0.4535,-1.27219 0.20214,-1.52354 -0.69747,-0.69748 -3.74326,0.68337 -3.74326,1.69706 0,1.25179 2.74331,1.11736 3.54112,-0.17352 z m 26.45888,-8.91442 c 0,-1.14298 -3.41762,-2.03381 -7,-1.82461 -1.375,0.0803 -4.24531,-0.21652 -6.37846,-0.65961 -3.07282,-0.63827 -3.78445,-0.52356 -3.42587,0.5522 0.24894,0.74679 1.54424,1.66286 2.87847,2.03571 3.79826,1.06142 13.92586,0.98601 13.92586,-0.10369 z m 29.77106,-2.83223 c 0.24358,-0.73075 -0.21359,-0.95424 -1.1875,-0.58051 -0.87096,0.33422 -1.58356,1.04702 -1.58356,1.58401 0,1.31439 2.27278,0.49134 2.77106,-1.0035 z m 21.22894,-0.16916 c 0,-1.24818 -5.01178,-3.01766 -8.54705,-3.01766 -3.14002,0 -4.5662,1.55342 -2.92914,3.19048 0.78996,0.78996 11.47619,0.62904 11.47619,-0.17282 z m -97,3.98234 c 0,-0.55 0.70156,-1 1.55902,-1 0.85746,0 1.2809,0.45 0.94098,1 -0.33992,0.55 -1.04148,1 -1.55902,1 -0.51754,0 -0.94098,-0.45 -0.94098,-1 z m 166.18251,-8.86604 c -1.26644,-0.80305 0.12797,-1.61319 5.98473,-3.47708 2.05049,-0.65256 3.43536,2.34384 1.61663,3.49786 -1.66629,1.05729 -5.91953,1.04566 -7.60136,-0.0208 z m -33.21648,-1.05643 c -4.06804,-0.79711 -5.96603,-1.79495 -5.96603,-3.13655 0,-1.29234 3.3532,-1.18778 4.68713,0.14615 0.78285,0.78285 1.2752,0.78285 1.75902,0 1.0829,-1.75216 2.92282,-1.20431 4.85053,1.44429 1.72892,2.37546 1.72892,2.46424 0,2.35358 -0.98817,-0.0632 -3.38696,-0.42661 -5.33065,-0.80747 z m 16.03397,-0.26564 c 0,-0.47012 1.06593,-1.34044 2.36874,-1.93404 1.81643,-0.82762 3.04018,-0.72747 5.24839,0.42953 l 2.87965,1.5088 -3.49839,0.53877 c -4.57219,0.70415 -6.99839,0.51588 -6.99839,-0.54306 z m 45.56476,0.29289 c -0.96062,-1.55432 2.23246,-2.05404 3.48457,-0.54534 0.9751,1.17492 0.81507,1.44056 -0.86787,1.44056 -1.13488,0 -2.3124,-0.40285 -2.6167,-0.89522 z m -218.73632,-3.60967 c -0.27769,-0.2777 -5.67873,-0.6152 -12.00231,-0.75 -12.69358,-0.27061 -13.94323,-0.77761 -23.89348,-9.69393 l -4.22544,-3.78637 0.70231,-5.3824 c 1.0912,-8.36289 1.64737,-9.88241 3.6171,-9.88241 2.87879,0 4.97338,1.09796 4.97338,2.60699 0,0.76615 0.675,1.39301 1.5,1.39301 1.93146,0 1.90318,-0.22133 -0.59682,-4.67238 -1.15325,-2.05327 -1.49075,-3.25401 -0.75,-2.66831 0.74075,0.5857 2.62819,1.37155 4.1943,1.74632 2.45174,0.58671 2.7589,1.03437 2.21008,3.22107 -0.50539,2.01362 -0.21489,2.65015 1.40251,3.07311 2.95631,0.77309 2.50241,2.28837 -0.71007,2.37048 -3.88795,0.0994 -6.92549,1.3942 -5.43362,2.31622 0.65099,0.40234 1.18362,0.46841 1.18362,0.14683 0,-0.32159 1.32765,0.10186 2.95034,0.94098 4.09068,2.11537 8.65899,1.91634 11.05706,-0.48172 1.10408,-1.10408 2.89248,-2.14248 3.97423,-2.30757 2.81999,-0.43036 3.32292,-1.24745 2.13457,-3.4679 -1.4924,-2.78858 -0.33092,-3.37953 3.12739,-1.59116 1.64452,0.85041 3.86499,1.31739 4.93439,1.03774 1.14249,-0.29877 2.16946,0.0781 2.49018,0.91391 0.83868,2.18558 3.15396,1.68679 3.51229,-0.75665 0.2767,-1.88684 1.05708,-2.22334 5.81955,-2.50942 6.00803,-0.3609 11,1.14113 11,3.30977 0,1.60981 4.72743,1.85521 7,0.36337 1.33333,-0.87528 1.33333,-1.0941 0,-1.96938 -0.825,-0.54158 -2.0625,-0.99158 -2.75,-1 -0.6875,-0.008 -1.25,-0.69031 -1.25,-1.51531 0,-1.9205 2.10846,-1.9014 6.78212,0.0614 3.23365,1.35805 3.48721,1.69167 1.94685,2.56146 -0.97407,0.55003 -1.51001,1.42239 -1.19099,1.93859 0.91664,1.48314 4.46573,1.09245 5.10039,-0.56146 0.32429,-0.84507 1.81299,-1.5 3.4096,-1.5 1.5587,0 3.11211,-0.45 3.45203,-1 0.94806,-1.534 6.6358,-1.18708 8.52186,0.51978 1.09206,0.98831 4.61664,1.71005 10.07874,2.06386 12.06521,0.78153 13.38445,1.12698 11.76333,3.08031 -1.30071,1.56726 -4.83225,1.52658 -17.76395,-0.20465 -1.87001,-0.25035 -3.89501,-0.0604 -4.5,0.42204 -0.60499,0.48248 -4.69998,0.9896 -9.09998,1.12693 -9.28868,0.28992 -7.54233,0.31757 -23.47482,-0.37166 -10.50329,-0.45437 -12.75164,-0.28914 -14.22642,1.04552 -2.38042,2.15425 -1.34986,3.3781 2.24001,2.66013 1.80328,-0.36066 2.96123,-0.17451 2.96123,0.47605 0,1.5996 -4.02786,4.10824 -5.61704,3.49841 -1.82375,-0.69983 -6.38296,0.46798 -6.38296,1.63495 0,0.50246 1.01077,1.23437 2.24616,1.62647 1.23539,0.3921 2.76169,1.41793 3.39179,2.27964 1.00636,1.37628 1.35866,1.38993 2.89808,0.11233 1.60953,-1.3358 1.69038,-1.25116 0.99133,1.03774 -1.27802,4.18461 -7.70368,8.48251 -9.69892,6.48727 z m 2.37156,-19.69511 c -0.64167,-0.64167 -1.49864,-0.8347 -1.90437,-0.42896 -0.40574,0.40574 -0.0888,1.13877 0.70437,1.62896 1.86759,1.15423 2.71091,0.31091 1.2,-1.2 z m 125.86457,18.7778 c -1.7737,-2.13718 -0.0323,-4.1534 4.20144,-4.86448 1.7787,-0.29874 4.02149,-0.8546 4.98399,-1.23523 1.40851,-0.55702 1.75,-0.15895 1.75,2.03992 0,2.54542 -0.22057,2.68788 -3.22988,2.08601 -2.5771,-0.51542 -3.54983,-0.2218 -4.81298,1.45281 -1.42408,1.88794 -1.71466,1.94027 -2.89257,0.52097 z m -66.25207,-0.26091 c 0.72187,-0.28887 1.58437,-0.25335 1.91667,0.0789 0.33229,0.33229 -0.25834,0.56864 -1.3125,0.52522 -1.16495,-0.048 -1.4019,-0.28494 -0.60417,-0.60416 z m 135.28574,-1.61865 c -0.60403,-0.60403 -1.09824,-2.35824 -1.09824,-3.89824 0,-1.82222 -0.52381,-2.8 -1.5,-2.8 -0.825,0 -1.5,-0.46114 -1.5,-1.02475 0,-1.47573 4.92418,-3.13409 7.18007,-2.4181 2.03946,0.6473 5.13937,-1.23127 4.29261,-2.60136 -0.97791,-1.58229 1.3843,-1.95595 2.88406,-0.4562 0.83488,0.83489 4.28146,1.80682 7.65905,2.15985 5.66213,0.59181 6.11546,0.49364 5.81264,-1.25879 -0.25018,-1.44783 0.35577,-1.97884 2.54339,-2.22883 1.5795,-0.1805 3.28176,0.0818 3.78278,0.58278 1.18428,1.18428 0.002,4.2454 -1.63914,4.2454 -0.69882,0 -1.80568,0.64477 -2.45971,1.43283 -1.33807,1.61227 -1.31345,1.60878 -13.22018,1.8741 -4.76544,0.10619 -8.93853,0.46616 -9.27354,0.79994 -1.04283,1.039 0.52975,3.78748 2.53035,4.42245 1.04919,0.333 1.90762,0.93595 1.90762,1.33988 0,1.17931 -6.69637,1.03443 -7.90176,-0.17096 z m -32.46699,-1.71567 c -1.02781,-1.0317 -3.16531,-2.16059 -4.75,-2.50865 -2.85961,-0.62808 -3.84018,-2.76324 -1.83745,-4.00099 0.5741,-0.35481 1.5866,-0.21523 2.25,0.31019 2.13902,1.69408 10.54551,2.11543 11.8099,0.59193 0.62765,-0.75628 2.43609,-1.37505 4.01874,-1.37505 2.67491,0 2.87756,0.27283 2.87756,3.8742 l 0,3.8742 -4.25,-0.1242 c -2.3375,-0.0683 -5.15,0.18144 -6.25,0.555 -1.32153,0.44879 -2.63395,0.0428 -3.86875,-1.19663 z m -58.13125,0.0174 c 0.33992,-0.55 1.74303,-1 3.11803,-1 1.41203,0 2.23104,0.43519 1.88197,1 -0.33992,0.55 -1.74303,1 -3.11803,1 -1.41203,0 -2.23104,-0.43519 -1.88197,-1 z m 77.49197,-3.50854 c -2.72233,-2.8978 -2.64716,-3.03043 2.13524,-3.76712 3.73989,-0.5761 3.67485,-0.62995 6.67404,5.52566 0.20098,0.4125 -0.30958,0.75 -1.13458,0.75 -0.825,0 -1.68932,-0.5625 -1.92072,-1.25 -0.33461,-0.99419 -0.72768,-0.99675 -1.92075,-0.0125 -1.23193,1.01633 -1.91705,0.79362 -3.83323,-1.24605 z M 397.46239,498.8808 c 0.17782,-0.85405 0.66082,-1.52905 1.07332,-1.5 0.4125,0.029 2.1,0.0528 3.75,0.0528 2,0 3,0.5 3,1.5 0,1.08783 -1.11926,1.5 -4.07332,1.5 -3.15446,0 -4.00039,-0.35029 -3.75,-1.55282 z m 98.32332,-3.44718 c 0.33992,-0.55 1.29303,-1 2.11803,-1 0.825,0 1.22189,0.45 0.88197,1 -0.33992,0.55 -1.29303,1 -2.11803,1 -0.825,0 -1.22189,-0.45 -0.88197,-1 z m 22.17589,-0.40223 c -0.71045,-1.8514 0.14884,-2.59777 2.99078,-2.59777 2.6453,0 3.18962,2.45743 0.75154,3.39301 -2.37714,0.9122 -3.15015,0.74793 -3.74232,-0.79524 z m -11.17589,-0.59777 c 0.33992,-0.55 1.71648,-1 3.05902,-1 1.34254,0 2.44098,0.45 2.44098,1 0,0.55 -1.37656,1 -3.05902,1 -1.7847,0 -2.80156,-0.41658 -2.44098,-1 z m 20,-8.87916 c -1.65,-0.36478 -2.55,-0.91607 -2,-1.22507 1.63472,-0.91843 6.97554,-0.47654 7.30282,0.60423 0.38117,1.25874 -1.44854,1.47296 -5.30282,0.62084 z m -32.41667,-1.4772 c 1.12482,-0.96201 6.91667,-1.48005 6.91667,-0.61864 0,0.53625 -1.65,0.975 -3.66667,0.975 -2.01666,0 -3.47916,-0.16036 -3.25,-0.35636 z m -106.58333,-6.62939 c -1.65,-0.37255 -5.383,-0.46309 -8.29555,-0.2012 -6.00547,0.53999 -10.20445,-1.10874 -10.20445,-4.00678 0,-1.07192 1.08347,-2.26771 2.5651,-2.83102 3.56277,-1.35456 7.48698,-1.22705 7.1849,0.23346 -0.16152,0.78093 1.88339,1.45871 5.77797,1.91509 3.31538,0.3885 8.79119,1.4224 12.16846,2.29754 6.77192,1.75478 10.42702,1.08503 12.20455,-2.23632 1.61277,-3.01349 6.33784,-4.46151 12.29752,-3.76864 2.91582,0.339 7.67716,0.75715 10.58073,0.92922 2.90358,0.17208 5.80608,0.83971 6.45,1.48363 1.67851,1.67851 7.34356,1.44305 11.01982,-0.45802 2.60584,-1.34753 3.71398,-1.42475 6.41739,-0.44718 2.38437,0.8622 3.81721,0.8875 5.30062,0.0936 2.33433,-1.24929 2.76006,-5.01763 0.56687,-5.01763 -0.80634,0 -2.94384,-0.63312 -4.75,-1.40693 -1.80616,-0.77382 -6.20893,-2.62476 -9.78393,-4.11321 -6.34732,-2.6427 -9.41063,-5.00642 -8.46697,-6.5333 0.25793,-0.41734 1.31773,-0.53684 2.35511,-0.26556 2.4821,0.64908 3.89696,-1.66213 1.75226,-2.86237 -1.8026,-1.00878 -2.21868,-2.81863 -0.64801,-2.81863 1.89241,0 5.85575,4.23215 5.30571,5.66555 -0.42212,1.10001 0.0317,1.28978 1.93937,0.81099 1.89144,-0.47473 2.60551,-0.18629 2.96891,1.1992 0.50427,1.92255 8.54568,5.33799 12.54724,5.32921 1.2395,-0.003 3.93283,0.89505 5.9852,1.99505 2.05236,1.1 4.30073,2 4.99637,2 1.50708,0 1.67929,-1.6258 0.26481,-2.5 -1.58318,-0.97846 -1.17322,-2.33693 1.06706,-3.53589 1.61864,-0.86627 2.62169,-0.74284 4.62374,0.56895 2.03418,1.33285 3.05194,1.44956 4.98,0.57107 3.01545,-1.37393 4.3292,-1.40107 4.3292,-0.0894 0,1.87256 -6.29053,4.95049 -8.82006,4.31562 -2.1166,-0.53123 -2.31817,-0.34119 -1.70089,1.60368 0.5514,1.7373 0.23971,2.32678 -1.46611,2.77287 -1.19151,0.31158 -2.57072,1.63001 -3.06491,2.92983 -0.49419,1.29982 -1.71967,2.36331 -2.72328,2.36331 -1.00361,0 -2.421,0.5625 -3.14975,1.25 -1.06139,1.00131 -1.42024,0.98915 -1.80371,-0.0611 -0.36584,-1.00198 -0.95025,-0.8841 -2.47856,0.5 -1.7254,1.56258 -4.25,1.85401 -18.39629,2.12363 -14.43977,0.27517 -16.39644,0.12305 -16.39644,-1.27478 0,-3.23792 -10.61348,-4.91334 -12.98943,-2.05048 -0.67888,0.81799 -0.98313,2.14184 -0.67613,2.94189 0.47276,1.23198 -1.53821,1.43992 -13.13812,1.35854 -7.53298,-0.0528 -15.04632,-0.4009 -16.69632,-0.77345 z m 4.5,-7.59758 c 0,-1.76593 2.15276,-1.45839 2.77083,0.39583 0.21771,0.65313 -0.31666,1.1875 -1.1875,1.1875 -0.87083,0 -1.58333,-0.7125 -1.58333,-1.58333 z m 14.28348,-11.95133 c -1.24165,-0.90792 -0.68,-1.42409 3.13472,-2.88095 4.90094,-1.87168 6.52846,-1.42108 8.5569,2.36908 0.74916,1.39982 0.12136,1.61796 -4.65652,1.61796 -3.03734,0 -6.20313,-0.49774 -7.0351,-1.10609 z m 20.86947,-3.59203 c -1.12597,-1.80297 -1.09268,-2.36215 0.21869,-3.67352 1.33968,-1.33968 2.08349,-1.3697 5.55444,-0.22418 4.05539,1.33839 4.60366,3.02439 0.98352,3.02439 -1.0848,0 -2.23139,0.675 -2.54797,1.5 -0.81762,2.13068 -2.65779,1.85668 -4.20868,-0.62669 z m -8.65295,-7.87331 c -0.33992,-0.55 -0.14148,-1 0.44098,-1 0.58246,0 1.05902,0.45 1.05902,1 0,0.55 -0.19844,1 -0.44098,1 -0.24254,0 -0.7191,-0.45 -1.05902,-1 z m 4.66703,-10.59556 c -2.28978,-1.60383 -10.34061,-2.1189 -14.16196,-0.90605 -1.06124,0.33683 -2.75827,0.16888 -3.77118,-0.37322 -1.01291,-0.54209 -2.43849,-0.61676 -3.16795,-0.16592 -2.02079,1.24891 -8.00744,-2.76872 -9.83438,-6.59984 -0.87577,-1.83653 -2.36957,-3.58583 -3.31956,-3.88734 -0.94998,-0.30151 -1.97049,-1.18211 -2.2678,-1.95689 -0.82863,-2.15937 8.70032,-0.82083 15.09007,2.11973 2.87885,1.32484 6.70385,2.68823 8.5,3.02976 1.79615,0.34153 4.58264,1.28432 6.19221,2.09509 2.18125,1.09874 4.34576,1.28015 8.5,0.71239 3.06543,-0.41895 6.69852,-0.83119 8.07352,-0.91609 3.9852,-0.24608 7.23235,-1.61255 11.1439,-4.68958 2.00415,-1.57656 4.14165,-2.86648 4.75,-2.86648 1.88466,0 1.21778,3.59085 -1.03908,5.59501 -1.17985,1.04775 -3.00254,3.82118 -4.05042,6.16319 -1.70735,3.8159 -2.11889,4.14386 -3.96218,3.15736 -1.48756,-0.79612 -2.35939,-0.79839 -3.14958,-0.008 -1.47668,1.47668 -4.42059,1.38363 -4.97865,-0.15736 -0.36215,-1 -0.8761,-1 -2.56977,0 -2.7204,1.60622 -3.23294,1.57659 -5.97719,-0.34556 z m -40.16703,-27.28641 c 0,-0.55 0.45,-1.27811 1,-1.61803 0.55,-0.33992 1,-0.16803 1,0.38197 0,0.55 -0.45,1.27811 -1,1.61803 -0.55,0.33992 -1,0.16803 -1,-0.38197 z m 41.5,-0.11803 c -0.33992,-0.55 -0.16803,-1 0.38197,-1 0.55,0 1.27811,0.45 1.61803,1 0.33992,0.55 0.16803,1 -0.38197,1 -0.55,0 -1.27811,-0.45 -1.61803,-1 z m -26.84937,-2.09506 c -0.98661,-1.15228 -1.61634,-2.27257 -1.39939,-2.48952 0.77343,-0.77343 5.7333,2.10746 5.74096,3.33458 0.0121,1.93716 -2.35363,1.47668 -4.34157,-0.84506 z m -5.65063,-7.52738 c 0,-1.32879 0.27149,-1.39713 1.5,-0.37756 0.825,0.68469 1.5,1.41479 1.5,1.62244 0,0.20766 -0.675,0.37756 -1.5,0.37756 -0.825,0 -1.5,-0.7301 -1.5,-1.62244 z m 38.63837,-7.87756 c -0.40611,-1.05831 -2.05713,-1.5 -5.60699,-1.5 -2.76726,0 -5.03138,-0.45 -5.03138,-1 0,-0.55 0.675,-1 1.5,-1 0.825,0 1.5,-0.85185 1.5,-1.89301 0,-1.04116 -0.675,-2.15203 -1.5,-2.46862 -3.34202,-1.28245 -1.14132,-2.30839 4.77464,-2.22588 4.90561,0.0684 6.89869,0.57842 9.13486,2.33751 3.1501,2.47804 6.53844,2.90206 8.3905,1.05 0.93333,-0.93333 1.2,-0.93333 1.2,0 0,0.66 -0.45,1.2 -1,1.2 -0.55,0 -1,1.125 -1,2.5 0,2.29137 -0.3706,2.5 -4.44098,2.5 -2.44254,0 -4.7191,0.45 -5.05902,1 -0.89794,1.45289 -2.1995,1.22548 -2.86163,-0.5 z m -21.0795,-3.0318 c -1.06762,-0.80751 -2.78812,-1.4682 -3.82332,-1.4682 -2.72353,0 -1.77817,-3.41976 1.05705,-3.82379 1.35289,-0.1928 3.26352,0.61636 4.7225,2 4.13367,3.92018 2.50281,6.66463 -1.95623,3.29199 z m -22.55887,-6.36121 c 0,-2.44667 2.19657,-2.77999 4,-0.60699 0.75377,0.90823 0.83434,1.5 0.20423,1.5 -0.57236,0 -1.75246,0.27315 -2.62244,0.60699 -1.13395,0.43514 -1.58179,0.0104 -1.58179,-1.5 z m 6,0.89301 c 0,-0.55 0.45,-1 1,-1 0.55,0 1,0.45 1,1 0,0.55 -0.45,1 -1,1 -0.55,0 -1,-0.45 -1,-1 z m 1.5,-6 c -0.33992,-0.55 -0.40328,-1 -0.1408,-1 0.26247,0 1.18903,-0.27314 2.05901,-0.60699 1.03799,-0.39831 1.58179,-0.0545 1.58179,1 0,1.76415 -2.51524,2.20036 -3.5,0.60699 z m 30.75,-3.27202 c -2.8875,-0.55509 -5.25,-1.39598 -5.25,-1.86862 0,-1.40691 4.2201,-0.8406 8.5,1.14064 4.50112,2.08365 4.17818,2.15599 -3.25,0.72798 z m -15.4375,-7.41109 c 0.72187,-0.28887 1.58437,-0.25335 1.91667,0.0789 0.33229,0.33229 -0.25834,0.56864 -1.3125,0.52522 -1.16495,-0.048 -1.4019,-0.28494 -0.60417,-0.60416 z"
         id="path2834" />
      <path
         style="fill:#bdbdbd"
         d="m 471.28571,675.58861 c 0,-1.49912 3.83974,-4.37207 4.93699,-3.69393 0.58465,0.36133 1.06301,1.53042 1.06301,2.59796 0,1.48998 -0.69707,1.94098 -3,1.94098 -1.65,0 -3,-0.38026 -3,-0.84501 z m 20.83333,0.095 c -0.18333,-0.41249 -1.90833,-1.91696 -3.83333,-3.34326 -2.64231,-1.95778 -4.83927,-2.63805 -8.96518,-2.77598 -5.66166,-0.18929 -10.03482,-2.16982 -10.03482,-4.5446 0,-0.75226 -0.87365,-3.31911 -1.94145,-5.70411 -1.38434,-3.09202 -1.61587,-4.5376 -0.80686,-5.03759 0.82707,-0.51116 0.75214,-1.46601 -0.27646,-3.52284 -0.77608,-1.55188 -1.57549,-3.15911 -1.77648,-3.57161 -0.20098,-0.4125 0.30306,-0.75 1.12009,-0.75 0.81703,0 1.99903,1.2375 2.62666,2.75 4.3283,10.43051 9.44673,14.56919 16.5545,13.38569 3.45683,-0.5756 4.1533,-1.13925 5.12895,-4.15086 0.62092,-1.91666 1.85842,-3.63033 2.75,-3.80815 2.29765,-0.45828 2.0714,-1.03727 -1.92021,-4.91387 -2.8719,-2.78915 -3.81457,-3.21238 -4.98726,-2.23914 -2.12457,1.76323 -4.67603,0.40664 -4.26788,-2.2692 0.35036,-2.29691 0.88641,-2.45104 4.13301,-1.18834 1.50849,0.5867 1.77648,0.292 1.5,-1.6495 -0.44673,-3.13715 4.24822,-5.65464 7.65268,-4.10346 1.77921,0.81066 2.54835,2.4683 3.59983,7.75824 0.93134,4.68558 1.84384,6.8598 3.00659,7.16387 1.16175,0.30381 1.87755,2.00552 2.35384,5.59591 0.37642,2.83764 1.40151,5.95174 2.27796,6.92021 0.87646,0.96847 1.24713,2.0956 0.82371,2.50473 -0.42341,0.40913 -1.45054,-0.26863 -2.2825,-1.50613 -0.83197,-1.2375 -2.13278,-2.25 -2.89069,-2.25 -1.59888,0 -1.84026,1.59629 -0.37803,2.5 1.26435,0.78141 1.3202,5.5 0.0651,5.5 -0.5142,0 -2.18645,0.47584 -3.71612,1.05742 -2.22659,0.84654 -2.48884,1.24233 -1.3151,1.98468 1.11532,0.7054 0.82805,0.93094 -1.20055,0.94259 -1.46666,0.008 -2.81666,-0.32219 -3,-0.73469 z m 0.27917,-32.5375 c -0.81667,-0.81666 -1.1125,-0.70475 -1.1125,0.42084 0,1.98786 1.3447,3.33256 1.84167,1.84167 0.21083,-0.6325 -0.1173,-1.65063 -0.72917,-2.2625 z m 39.16872,19.28626 c -0.97967,-1.79967 -2.79473,-4.44812 -4.03347,-5.88545 -2.10624,-2.44389 -2.3403,-2.49986 -3.61025,-0.86331 -0.74689,0.9625 -1.84852,1.75 -2.44805,1.75 -0.59954,0 -1.53079,0.7875 -2.06944,1.75 -0.8666,1.54848 -1.10262,1.42584 -2.04969,-1.0651 -1.55012,-4.07704 -1.31774,-6.47218 0.67968,-7.00558 1.48206,-0.39577 1.40551,-0.57797 -0.5,-1.18995 -2.69545,-0.8657 -2.84219,-2.17752 -0.52944,-4.73308 1.67098,-1.84642 1.75264,-1.80546 2.83378,1.42125 1.75825,5.24758 7.07742,6.91784 13.69566,4.30055 1.38986,-0.54965 1.75,-0.16771 1.75,1.8559 0,1.40139 -0.48153,2.84558 -1.07008,3.20932 -2.15335,1.33085 -2.76759,4.88962 -1.15862,6.71282 0.85237,0.96587 1.26658,2.03932 0.92046,2.38544 -0.34612,0.34613 -1.43086,-0.84314 -2.41054,-2.64281 z m -172.00667,-5.915 c -6.12613,-0.74404 -7.39272,-1.73116 -6.2023,-4.83376 1.13823,-2.96655 2.40992,-2.84884 9.95482,0.92139 5.2412,2.61906 6.0092,3.30346 4.40972,3.92972 -1.06523,0.41708 -2.16179,0.7266 -2.43679,0.68782 -0.275,-0.0388 -2.85145,-0.35611 -5.72544,-0.70516 z m -13.04538,-3.27125 c 0.61807,-1.85422 2.77083,-2.16176 2.77083,-0.39583 0,0.87083 -0.7125,1.58333 -1.58333,1.58333 -0.87084,0 -1.40521,-0.53438 -1.1875,-1.1875 z m 159.16976,-2.5625 c -0.44827,-0.9625 -0.85871,-3.55 -0.91208,-5.75 -0.0534,-2.2 -0.28009,-6.25 -0.50382,-9 -0.36115,-4.43917 -0.18673,-5 1.55509,-5 1.07904,0 2.5018,-0.3501 3.16171,-0.77801 1.93568,-1.25516 3.60656,2.77884 1.77916,4.29545 -2.00027,1.66007 -1.8777,2.68018 1.00461,8.36137 2.49139,4.91067 2.51201,6.62119 0.0798,6.62119 -0.7252,0 -1.87874,0.675 -2.56343,1.5 -1.6282,1.96186 -2.60242,1.89422 -3.60107,-0.25 z m -48.39893,-18.75 c 0,-0.825 0.17686,-1.5 0.39301,-1.5 0.21616,0 0.65203,0.675 0.96862,1.5 0.31658,0.825 0.13972,1.5 -0.39301,1.5 -0.53274,0 -0.96862,-0.675 -0.96862,-1.5 z m 12.97171,-3.03409 c -1.84745,-2.22604 0.57695,-6.46591 3.69727,-6.46591 2.9251,0 3.23184,3.8748 0.50228,6.34501 -2.24994,2.03617 -2.60162,2.0463 -4.19955,0.1209 z m -15.47171,-3.46591 c -0.33992,-0.55 0.11008,-1 1,-1 0.88992,0 1.33992,0.45 1,1 -0.33992,0.55 -0.78992,1 -1,1 -0.21008,0 -0.66008,-0.45 -1,-1 z m 40.95888,-0.0665 c -1.07627,-1.74144 0.14952,-2.11024 1.52106,-0.45764 0.78875,0.95039 0.86462,1.52417 0.20152,1.52417 -0.58488,0 -1.36004,-0.47994 -1.72258,-1.06653 z m -123.45888,-3.9335 c 0,-0.55 0.9,-1 2,-1 1.1,0 2,0.45 2,1 0,0.55 -0.9,1 -2,1 -1.1,0 -2,-0.45 -2,-1 z m 16.66667,0.33333 c -1.15064,-1.15063 -0.72824,-2.33333 0.83333,-2.33333 0.825,0 1.5,0.675 1.5,1.5 0,1.56157 -1.1827,1.98397 -2.33333,0.83333 z m 73.58333,-1.61168 c -1.7875,-0.55603 -3.25,-1.37548 -3.25,-1.821 0,-0.97489 6.10511,-2.22451 8.51656,-1.74321 1.58954,0.31726 1.57845,0.49886 -0.15013,2.45887 -1.60532,1.82025 -2.3211,1.97489 -5.11643,1.10534 z m 38.25,0.27835 c 0.33992,-0.55 0.81648,-1 1.05902,-1 0.24254,0 0.44098,0.45 0.44098,1 0,0.55 -0.47656,1 -1.05902,1 -0.58246,0 -0.7809,-0.45 -0.44098,-1 z M 360.84445,619.005 c -3.43843,-1.0634 -6.21259,-3.59825 -3.89207,-3.55632 1.75681,0.0317 8.45171,2.70332 9.56545,3.81706 1.49655,1.49655 -0.25102,1.41623 -5.67338,-0.26074 z m 21.44126,-68.60276 c 0,-1.39093 2.62625,-2.31764 4.05888,-1.43223 0.84256,0.52073 0.78793,0.94597 -0.20212,1.5733 -1.86103,1.17921 -3.85676,1.10621 -3.85676,-0.14107 z m 66.01531,-2.21862 c 0.0198,-1.61511 0.72773,-2.51334 5.32005,-6.75 3.42137,-3.1564 3.89052,-3.3282 4.77892,-1.75 0.5418,0.9625 1.86274,1.75 2.93541,1.75 3.53116,0 2.03352,1.69837 -2.29969,2.60792 -2.93212,0.61545 -4.5561,1.58978 -5.23713,3.14208 -1.05389,2.40217 -5.5247,3.2154 -5.49756,1 z m 24.98469,-4.75 c 0,-0.55 0.92656,-1 2.05902,-1 1.13246,0 1.7809,0.45 1.44098,1 -0.33992,0.55 -1.26648,1 -2.05902,1 -0.79254,0 -1.44098,-0.45 -1.44098,-1 z m 14.38813,-4.18101 c -0.98892,-1.6001 1.22817,-3.07555 3.52573,-2.34633 1.16335,0.36923 1.89066,1.03462 1.61624,1.47863 -0.81672,1.32148 -4.47952,1.93957 -5.14197,0.8677 z m -26.38813,-3.81519 c 0,-1.21231 2.80451,-2.53262 3.62877,-1.70836 0.29839,0.29839 -0.39602,1.04481 -1.54312,1.65872 -1.44619,0.77398 -2.08565,0.7892 -2.08565,0.0496 z m -50,-60.9471 c 0,-1.43656 4.1866,-4.05733 6.47251,-4.05173 1.77443,0.004 1.65305,0.31189 -0.97251,2.46403 -3.10034,2.54132 -5.5,3.23404 -5.5,1.5877 z m 21.5,-0.0567 c -0.33992,-0.55 0.33508,-1 1.5,-1 1.16492,0 1.83992,0.45 1.5,1 -0.33992,0.55 -1.01492,1 -1.5,1 -0.48508,0 -1.16008,-0.45 -1.5,-1 z"
         id="path2832" />
    </g>
    <text
       xml:space="preserve"
       style="font-size:181.55503845px;font-style:normal;font-weight:normal;fill:#358eb4;fill-opacity:1;stroke:none;font-family:Arjowiggins Inuit;-inkscape-font-specification:Arjowiggins Inuit"
       x="122.23919"
       y="795.55865"
       id="text3614"><tspan
         sodipodi:role="line"
         id="tspan3616"
         x="122.23919"
         y="795.55865">esquimaux</tspan></text>
    <text
       xml:space="preserve"
       style="font-size:49.45421982px;font-style:normal;font-weight:normal;fill:#000000;fill-opacity:1;stroke:none;font-family:DejaVu Sans;-inkscape-font-specification:DejaVu Sans"
       x="206.48343"
       y="894.37787"
       id="text3625"><tspan
         sodipodi:role="line"
         id="tspan3627"
         x="206.48343"
         y="894.37787">southern division of</tspan></text>
    <text
       xml:space="preserve"
       style="font-size:97.59117889px;font-style:normal;font-weight:normal;fill:#62c3fb;fill-opacity:1;stroke:none;font-family:Arjowiggins Inuit;-inkscape-font-specification:Arjowiggins Inuit"
       x="712.45227"
       y="899.47144"
       id="text3629"><tspan
         sodipodi:role="line"
         id="tspan3631"
         x="712.45227"
         y="899.47144">inuits</tspan></text>
  </g>
</svg>
