<?xml version="1.0" encoding="UTF-8" standalone="no"?>
<!-- Created with Inkscape (http://www.inkscape.org/) -->

<svg
   xmlns:dc="http://purl.org/dc/elements/1.1/"
   xmlns:cc="http://creativecommons.org/ns#"
   xmlns:rdf="http://www.w3.org/1999/02/22-rdf-syntax-ns#"
   xmlns:svg="http://www.w3.org/2000/svg"
   xmlns="http://www.w3.org/2000/svg"
   xmlns:sodipodi="http://sodipodi.sourceforge.net/DTD/sodipodi-0.dtd"
   xmlns:inkscape="http://www.inkscape.org/namespaces/inkscape"
   width="1052.09"
   height="1052.3622"
   id="svg11634"
   version="1.1"
   inkscape:version="0.48.1 r9760"
   sodipodi:docname="Nouveau document 14">
  <defs
     id="defs11636">
    <inkscape:perspective
       sodipodi:type="inkscape:persp3d"
       inkscape:vp_x="0 : 526.18109 : 1"
       inkscape:vp_y="0 : 1000 : 0"
       inkscape:vp_z="744.09448 : 526.18109 : 1"
       inkscape:persp3d-origin="372.04724 : 350.78739 : 1"
       id="perspective2910" />
    <inkscape:perspective
       id="perspective2874"
       inkscape:persp3d-origin="0.5 : 0.33333333 : 1"
       inkscape:vp_z="1 : 0.5 : 1"
       inkscape:vp_y="0 : 1000 : 0"
       inkscape:vp_x="0 : 0.5 : 1"
       sodipodi:type="inkscape:persp3d" />
    <clipPath
       clipPathUnits="userSpaceOnUse"
       id="clipPath20">
      <path
         d="M 0,1889.37 0,0 l 5045.37,0 0,1889.37 -5045.37,0 z"
         id="path22"
         inkscape:connector-curvature="0" />
    </clipPath>
    <inkscape:perspective
       id="perspective2824"
       inkscape:persp3d-origin="512 : 256 : 1"
       inkscape:vp_z="1024 : 384 : 1"
       inkscape:vp_y="0 : 1000 : 0"
       inkscape:vp_x="0 : 384 : 1"
       sodipodi:type="inkscape:persp3d" />
  </defs>
  <sodipodi:namedview
     id="base"
     pagecolor="#ffffff"
     bordercolor="#666666"
     borderopacity="1.0"
     inkscape:pageopacity="0.0"
     inkscape:pageshadow="2"
     inkscape:zoom="0.35"
     inkscape:cx="375"
     inkscape:cy="520"
     inkscape:document-units="px"
     inkscape:current-layer="layer1"
     showgrid="false"
     inkscape:window-width="1596"
     inkscape:window-height="886"
     inkscape:window-x="52"
     inkscape:window-y="10"
     inkscape:window-maximized="0" />
  <metadata
     id="metadata11639">
    <rdf:RDF>
      <cc:Work
         rdf:about="">
        <dc:format>image/svg+xml</dc:format>
        <dc:type
           rdf:resource="http://purl.org/dc/dcmitype/StillImage" />
        <dc:title></dc:title>
      </cc:Work>
    </rdf:RDF>
  </metadata>
  <g
     inkscape:label="Calque 1"
     inkscape:groupmode="layer"
     id="layer1">
    <g
       id="g11828">
      <path
         d="m 910.07501,486.27798 c 0,207.49781 -168.22092,375.70482 -375.77826,375.70482 -207.49829,0 -375.7389,-168.20701 -375.7389,-375.70482 0,-207.51888 168.24061,-375.75321 375.7389,-375.75321 207.55734,0 375.77826,168.23433 375.77826,375.75321"
         style="fill:#171316;fill-opacity:1;fill-rule:nonzero;stroke:none"
         id="path24"
         inkscape:connector-curvature="0" />
      <path
         d="m 536.98303,875.87078 c -215.16901,0 -389.63556,-174.42962 -389.63556,-389.5928 0,-215.17931 174.46655,-389.605606 389.63556,-389.605606 215.16855,0 389.63517,174.426296 389.63517,389.605606 0,215.16318 -174.46662,389.5928 -389.63517,389.5928 z m 469.88407,-602.8514 c -4.4907,2.33258 -22.91422,11.01831 -26.94369,12.57637 12.67491,-18.80862 31.14319,-39.84685 52.62919,-45.86416 -1.6342,-3.97128 -22.95,-3.36686 -27.9286,-0.84173 C 1031.3124,204.24101 1032.2258,108.8682 969.59459,88.447842 919.1189,71.985243 824.67737,103.37024 863.27958,177.6242 c -12.5361,-21.92474 10.71835,-51.86809 32.30281,-58.31969 31.1119,-9.2409 58.454,17.9669 56.43928,45.50155 20.79647,-15.08809 33.59675,15.57608 32.39683,21.53967 -4.94727,35.92931 -22.46197,60.17769 -50.60102,77.81778 -33.91014,21.26212 -65.03097,-11.77047 -69.25742,-45.018 -13.55244,12.49132 -20.84573,-3.50564 -20.38458,-15.26716 -6.61729,7.62018 -13.88373,-4.46374 -17.85051,4.3921 -13.09573,-11.43917 -19.50705,-32.14163 -4.8264,-42.57792 -31.95358,-0.86857 -65.06232,-1.37898 -42.86001,-37.76498 -8.4126,5.79347 -21.34268,11.07205 -30.78056,7.14109 -8.71261,-6.86352 -6.08897,-21.17702 -0.47012,-35.307016 -2.47586,3.563856 -4.15033,6.975456 -7.71865,8.923026 C 715.25071,119.15228 671.49081,103.4956 643.80845,91.899717 593.40889,70.910721 474.3966,66.594719 366.90589,113.45731 c 0.30938,-9.24984 -4.70642,-32.571432 -26.67769,-41.190019 14.39502,51.993459 3.28266,54.321559 -13.45796,43.307739 -7.91338,-5.20247 -21.23296,0.51935 -21.99591,-0.69844 0.47952,0.78351 27.46656,10.73626 15.77893,20.29056 -21.37672,12.5898 -115.19102,110.48325 -113.43728,64.12209 -5.33412,7.08737 0.77498,28.46141 -2.35544,36.60987 -35.8595,68.81868 -114.918353,199.10894 -53.82059,383.58154 1.42017,0.28161 -21.4976,7.04841 -40.26146,32.53158 23.49311,-3.44742 27.54675,-0.98494 38.23957,15.15929 12.19671,18.38416 22.51528,20.48847 35.16865,20.96212 14.41069,34.56021 100.25919,123.04712 134.36092,145.95234 15.50359,12.54505 -1.50432,29.07926 -18.09092,46.78667 14.66633,-1.91153 26.4713,4.24456 39.50614,-12.09349 l 10.36916,-17.07639 c 15.83979,12.41565 -12.57283,42.16595 1.41836,66.4686 3.68831,-24.30265 29.71903,-44.79459 26.55501,-60.02549 55.41222,27.6377 113.40148,37.60464 175.20442,37.60464 33.86535,0 71.9124,-7.94699 100.69613,-13.10975 22.09936,-3.98574 58.31075,-22.78462 75.42698,-18.778 15.66564,2.18981 13.07783,13.97905 22.56497,22.76202 -1.66553,-0.44247 9.69308,-27.28262 -0.13418,-42.82869 50.52045,-35.08628 93.25955,-76.56869 121.20163,-117.54333 4.64281,2.18441 14.88212,2.02011 19.49808,4.37376 -12.32121,-10.47213 -8.63646,-49.28028 14.78811,-54.61259 2.62363,11.0546 11.09893,9.25521 18.70564,14.53335 -22.86943,-55.7462 30.13138,-17.14803 30.00156,-29.49517 -30.27914,-17.54159 -19.47124,-74.83195 -19.4399,-74.96986 3.80114,-11.05998 13.65091,-63.68424 12.86739,-81.25403 -1.57149,-35.11312 38.14555,-13.83893 38.19032,-13.86671 -7.853,-12.29116 -3.30864,-26.63693 -16.04172,-33.94815 7.63805,-5.08161 11.90031,-12.45999 22.54703,-11.47502 -27.35106,-5.73078 -49.69663,16.71332 -27.71818,-45.48361 -21.93368,-6.38448 -21.60238,-19.25633 -12.72412,-38.23061 -35.83532,23.92602 -22.43514,-13.98667 -7.10528,-31.70287 16.88341,-19.46228 51.6084,-32.40579 60.13294,-57.10188"
         style="fill:#171316;fill-opacity:1;fill-rule:nonzero;stroke:none"
         id="path26"
         inkscape:connector-curvature="0" />
      <path
         d="M 84.969678,785.74143 C 264.85944,938.56875 491.03377,764.73901 537.96802,725.23645 l 76.13885,81.42191 40.48709,-302.46678 -304.52492,20.20685 74.07798,79.09064 C 382.47125,637.50666 221.26296,763.41869 131.70914,695.34279 49.148832,624.16782 123.01537,459.84741 123.01537,459.84741 l 20.27307,-38.35596 c 0,0 -221.770591,220.68487 -58.318762,364.24998"
         style="fill:#ffffff;fill-opacity:1;fill-rule:nonzero;stroke:none"
         id="path58"
         inkscape:connector-curvature="0" />
      <path
         d="m 610.34155,794.87935 38.14555,-284.97757 -286.90993,19.03696 70.30911,75.06429 -4.38809,3.58714 c -60.88958,49.70516 -211.91543,158.15979 -298.99156,91.96565 -2.28202,-1.9516 -4.22512,-3.76172 -6.07733,-5.60541 C 49.318473,620.82067 111.35187,473.24669 117.75962,458.63859 83.172093,501.67182 30.257249,580.29148 30.175049,658.63354 30.126149,706.30651 49.725986,747.74858 88.464116,781.76079 265.65505,932.29721 491.1502,757.71345 534.5564,721.18952 l 3.84591,-3.237 71.93924,76.92683 0,0 z M 660.70081,498.48006 617.87218,818.43691 537.51135,732.51185 C 484.78814,775.89524 260.50495,941.8112 81.543739,789.7709 77.837547,786.51957 74.311764,783.21946 70.990605,779.89826 36.827859,745.73385 19.531269,704.92307 19.585509,658.58967 19.728919,538.37215 134.66272,422.61075 139.55272,417.73957 l 8.41934,6.22776 -20.27672,38.35596 c -0.55425,1.25808 -71.206351,161.26739 7.46928,229.00212 78.88964,59.96461 219.70886,-38.86052 281.22795,-88.37001 l -77.82943,-83.09862 322.13767,-21.37672 0,0"
         style="fill:#171316;fill-opacity:1;fill-rule:nonzero;stroke:none"
         id="path60"
         inkscape:connector-curvature="0" />
    </g>
  </g>
</svg>
