<?xml version="1.0" encoding="UTF-8" standalone="no"?>
<!-- Created with Inkscape (http://www.inkscape.org/) -->

<svg
   xmlns:dc="http://purl.org/dc/elements/1.1/"
   xmlns:cc="http://creativecommons.org/ns#"
   xmlns:rdf="http://www.w3.org/1999/02/22-rdf-syntax-ns#"
   xmlns:svg="http://www.w3.org/2000/svg"
   xmlns="http://www.w3.org/2000/svg"
   xmlns:sodipodi="http://sodipodi.sourceforge.net/DTD/sodipodi-0.dtd"
   xmlns:inkscape="http://www.inkscape.org/namespaces/inkscape"
   height="917.70264"
   id="svg2"
   inkscape:version="0.48.1 r9760"
   sodipodi:docname="scale.svg"
   sodipodi:version="0.32"
   width="682.22101"
   inkscape:output_extension="org.inkscape.output.svg.inkscape"
   version="1.0">
  <metadata
     id="metadata3">
    <rdf:RDF>
      <cc:Work
         rdf:about="">
        <dc:title></dc:title>
        <dc:description />
        <dc:subject>
          <rdf:Bag>
            <rdf:li>symbol</rdf:li>
          </rdf:Bag>
        </dc:subject>
        <dc:publisher>
          <cc:Agent
             rdf:about="http://www.openclipart.org/">
            <dc:title>Open Clip Art Library</dc:title>
          </cc:Agent>
        </dc:publisher>
        <dc:creator>
          <cc:Agent>
            <dc:title>yves GUILLOU</dc:title>
          </cc:Agent>
        </dc:creator>
        <dc:rights>
          <cc:Agent>
            <dc:title />
          </cc:Agent>
        </dc:rights>
        <dc:date />
        <dc:format>image/svg+xml</dc:format>
        <dc:type
           rdf:resource="http://purl.org/dc/dcmitype/StillImage" />
        <cc:license
           rdf:resource="http://web.resource.org/cc/PublicDomain" />
        <dc:language>en</dc:language>
        <dc:identifier />
        <dc:source />
        <dc:relation />
        <dc:coverage />
        <dc:contributor>
          <cc:Agent>
            <dc:title />
          </cc:Agent>
        </dc:contributor>
      </cc:Work>
      <cc:License
         rdf:about="http://web.resource.org/cc/PublicDomain">
        <cc:permits
           rdf:resource="http://web.resource.org/cc/Reproduction" />
        <cc:permits
           rdf:resource="http://web.resource.org/cc/Distribution" />
        <cc:permits
           rdf:resource="http://web.resource.org/cc/DerivativeWorks" />
      </cc:License>
    </rdf:RDF>
  </metadata>
  <defs
     id="defs5">
    <inkscape:perspective
       sodipodi:type="inkscape:persp3d"
       id="perspective24"
       inkscape:vp_x="-50 : 600 : 1"
       inkscape:vp_y="0 : 1000 : 0"
       inkscape:vp_z="700 : 600 : 1"
       inkscape:persp3d-origin="300 : 400 : 1" />
  </defs>
  <sodipodi:namedview
     bordercolor="#666666"
     borderopacity="1.0"
     id="base"
     inkscape:current-layer="svg2"
     inkscape:cx="-15.930441"
     inkscape:cy="406.98732"
     inkscape:pageopacity="0.0"
     inkscape:pageshadow="2"
     inkscape:window-height="754"
     inkscape:window-width="676"
     inkscape:window-x="0"
     inkscape:window-y="10"
     inkscape:zoom="0.35370584"
     pagecolor="#ffffff"
     showgrid="false"
     inkscape:window-maximized="0" />
  <path
     inkscape:connector-curvature="0"
     style="fill:#020000;fill-opacity:1"
     id="path1452"
     d="m 478.84752,514.07472 c 0,-1.03211 -0.72028,-1.14922 -1.5345,-0.24947 -0.98059,1.08353 -0.52799,1.97598 0.67549,1.33189 0.47245,-0.25283 0.85901,-0.73994 0.85901,-1.08242 z m -413.69384,9.11672 c -0.81869,-0.55257 -0.23967,-1.84118 3.67682,-8.18286 3.07007,-4.97112 4.19752,-6.80691 9.14914,-14.89715 1.86384,-3.04524 4.85314,-7.92871 6.64289,-10.85214 1.78975,-2.92343 3.72414,-6.11263 4.29864,-7.08711 0.5745,-0.97448 2.69954,-4.46266 4.72231,-7.75153 6.0242,-9.79491 9.99811,-16.28365 13.56367,-22.14722 5.30067,-8.71696 5.38262,-8.82398 7.09714,-9.26883 0.85267,-0.22125 14.70576,-0.52254 30.78464,-0.66955 16.07888,-0.14702 34.80892,-0.38094 41.62232,-0.51989 l 12.38799,-0.25265 4.66537,-4.35849 c 2.56595,-2.39717 7.24972,-6.95958 10.40839,-10.13868 l 5.74302,-5.78025 0.54044,-10.08587 c 0.29724,-5.54722 0.55194,-11.87979 0.566,-14.07236 l 0.0256,-3.9865 -3.58276,-4.74845 c -1.97053,-2.61165 -5.7154,-7.39545 -8.32195,-10.63067 l -4.73917,-5.88221 -23.45638,0.1365 c -25.02458,0.14561 -25.50466,0.1088 -25.80596,-1.97907 -0.0969,-0.67127 0.31398,-1.2119 1.45854,-1.91927 1.89202,-1.16934 3.34175,-1.55266 23.4812,-6.2087 21.91193,-5.06582 22.37769,-5.18279 26.66928,-6.69753 9.3123,-3.28684 17.52916,-8.02416 21.69517,-12.50808 2.77846,-2.99048 5.89624,-7.91942 5.89624,-9.32143 0,-0.97028 -1.09757,-2.33922 -9.87475,-12.31627 -5.95715,-6.77149 -6.95714,-8.35697 -6.95714,-11.03047 0,-3.09209 2.51907,-2.45952 7.56388,1.89939 1.80854,1.56265 6.67678,5.58562 10.81831,8.93992 4.14153,3.3543 9.07757,7.38711 10.96896,8.96181 4.08142,3.398 4.34372,2.14337 -2.49272,11.92298 -2.55453,3.65429 -6.16388,8.8784 -8.02076,11.60912 l -3.37616,4.96495 0.73702,1.45774 c 0.9518,1.88254 4.54024,7.90939 7.72501,12.9743 1.37868,2.19257 3.12689,5.08278 3.88493,6.42269 2.06332,3.64715 11.64496,15.28438 28.23721,34.29507 3.41794,3.91613 9.94198,11.53732 14.49788,16.93597 4.5559,5.39869 8.53646,9.90073 8.84568,10.00465 0.30922,0.10387 12.49273,0.0939 27.07446,-0.0222 22.31725,-0.17767 26.57392,-0.11366 26.90209,0.40454 0.21441,0.33863 0.3929,10.60679 0.39663,22.81823 0.007,21.51714 0.14545,25.21134 0.92956,24.72671 1.08374,-0.66978 6.67624,-13.57833 10.06494,-23.23177 6.79914,-19.3688 11.63701,-44.61796 10.99071,-57.3613 -1.08777,-21.44835 -7.37351,-36.01493 -19.7637,-45.80048 -6.41812,-5.06891 -11.21945,-7.65336 -18.60367,-10.01393 -3.51803,-1.12464 -4.47694,-1.22327 -14.61716,-1.50345 -11.77437,-0.32534 -13.42593,-0.66586 -13.98238,-2.88292 -0.75158,-2.99453 4.90599,-8.04216 10.88177,-9.70861 3.93273,-1.09671 9.40686,-1.73102 13.48048,-1.56205 2.64045,0.10953 3.79446,0.004 3.79441,-0.34836 -1e-4,-0.81299 -6.86458,-6.38258 -12.62398,-10.24262 -8.46493,-5.67335 -18.11568,-10.44605 -26.13371,-12.92422 -7.47057,-2.30896 -17.78727,-2.90556 -22.81164,-1.31915 -1.58353,0.49998 -4.21648,1.02396 -5.85102,1.16438 -8.46696,0.72739 -6.39656,-5.54347 4.21856,-12.77722 3.86836,-2.63612 8.8364,-5.25259 9.97458,-5.25329 0.32483,-2e-4 0.50808,-0.2495 0.40724,-0.5541 -0.29614,-0.8942 -8.21685,-1.3124 -14.50764,-0.766 -8.90575,0.7736 -17.61915,3.23468 -25.49534,7.20107 -4.05527,2.04219 -6.55328,2.71901 -7.72363,2.09265 -2.05356,-1.09903 -0.33183,-4.92279 4.37518,-9.71682 4.02086,-4.0952 8.08341,-6.9981 15.55546,-11.1152 6.51252,-3.5884 10.38018,-5.2366 17.04125,-7.2619 12.04828,-3.6633 20.69602,-4.8471 35.22619,-4.8222 12.99051,0.022 24.36556,1.7054 36.43896,5.3915 3.10988,0.9494 5.76197,1.5521 5.89354,1.3392 0.40099,-0.6488 -1.85594,-3.2175 -4.45103,-5.0659 -2.57622,-1.835 -2.63698,-2.0171 -1.59115,-4.7678 0.48687,-1.2805 1.90507,-1.6321 6.58363,-1.6321 4.69195,0 12.8986,1.2656 20.27012,3.1261 10.05239,2.5371 17.03682,5.1922 26.33069,10.0097 11.00533,5.7046 18.77363,11.4175 29.72166,21.85789 3.83134,3.65367 7.20589,6.64304 7.499,6.64304 0.35518,0 0.42284,-0.33241 0.20284,-0.99662 -0.18155,-0.54815 -0.35429,-1.69427 -0.38386,-2.54693 -0.0507,-1.46073 0.0254,-1.54697 1.31604,-1.49258 3.28668,0.1385 14.49835,7.10122 22.59932,14.0347 4.50443,3.85527 9.89063,9.43326 14.25554,14.7631 2.49989,3.05256 8.50595,12.07438 8.50595,12.77695 0,0.30813 0.32322,0.82848 0.71823,1.15634 0.39507,0.32785 1.3621,1.89703 2.14904,3.48705 0.78693,1.59003 2.29241,4.3859 3.34556,6.21304 8.45647,14.67142 16.93256,37.14022 23.02247,61.02895 0.56237,2.20592 1.10648,2.12363 1.5205,-0.22994 0.55062,-3.12985 2.49989,-8.42007 4.05263,-10.99869 3.28363,-5.453 8.9696,-10.64115 11.2941,-10.30518 0.9305,0.1345 1.0777,0.50369 1.573,3.94575 0.3005,2.08855 1.0947,5.17809 1.765,6.86563 2.8929,7.28414 12.0383,12.99073 20.8769,13.02684 1.2263,0.005 2.1654,0.29054 2.694,0.81917 0.7539,0.75387 2.3875,3.45274 14.3896,23.77193 2.4463,4.14153 6.8721,11.61622 9.8351,16.61042 2.963,4.99419 6.8429,11.57192 8.622,14.61716 2.8678,4.9084 5.4094,9.22578 16.1675,27.46255 9.1397,15.49327 10.1306,17.34579 9.4933,17.74914 -0.3459,0.2189 -6.8079,0.42018 -14.3601,0.44719 -7.5522,0.0271 -17.8175,0.10476 -22.8117,0.17266 -4.9942,0.0679 -29.9098,0.25009 -55.36803,0.4049 -25.45822,0.15476 -49.37722,0.37672 -53.15332,0.49317 -3.7761,0.11645 -31.58193,0.31565 -61.79074,0.44264 -30.20881,0.12704 -58.81194,0.32778 -63.56252,0.44613 -9.5974,0.2391 -39.32756,0.54425 -86.15268,0.88421 -35.88818,0.26058 -68.89639,0.57321 -93.46126,0.88531 -9.50116,0.1207 -29.23433,0.31954 -43.8515,0.44193 -14.61716,0.12238 -31.95843,0.33158 -38.53616,0.46487 -7.55635,0.15317 -12.19814,0.0813 -12.6077,-0.19508 z m 200.74833,-82.33942 c 5.92234,-0.1199 9.19109,-0.34921 9.19109,-0.64474 0,-0.25231 -0.74747,-1.29646 -1.66104,-2.32041 -0.91357,-1.024 -3.05632,-3.53107 -4.76165,-5.57127 -1.70534,-2.04025 -5.89116,-6.92154 -9.30183,-10.84731 -3.41067,-3.92579 -8.91847,-10.31098 -12.23955,-14.18931 -6.88179,-8.03651 -7.77093,-8.92705 -8.33459,-8.34773 -0.21958,0.22568 -0.6318,5.49312 -0.91605,11.70541 -0.28425,6.2123 -0.6782,11.69373 -0.87546,12.18097 -0.19725,0.48724 -3.66716,4.65982 -7.7109,9.27238 -4.04374,4.61256 -7.35225,8.55897 -7.35225,8.76981 0,0.37269 25.39424,0.36818 43.96223,-0.008 z M 220.168,433.66977 c 0,-0.48724 -0.19933,-0.88589 -0.44294,-0.88589 -0.24362,0 -0.44295,0.39865 -0.44295,0.88589 0,0.48724 0.19933,0.88589 0.44295,0.88589 0.24361,0 0.44294,-0.39865 0.44294,-0.88589 z M 203.967,350.8866 c -4.00193,-1.01903 -7.29871,-4.36459 -8.21572,-8.3373 -0.64457,-2.79245 0.35019,-6.50984 2.35216,-8.78996 3.44681,-3.9257 9.50376,-4.96417 13.98025,-2.39693 2.65457,1.52238 4.3076,3.74867 4.92381,6.63137 1.34827,6.30741 -3.07249,12.36219 -9.50488,13.01811 -1.19529,0.12189 -2.78632,0.0655 -3.53562,-0.12529 z m 94.77918,-15.71439 c -1.55151,-0.70439 -1.9488,-1.45039 -1.9488,-3.65935 0,-4.66062 4.59674,-7.69606 10.77462,-7.11499 2.78599,0.26204 9.75686,2.33603 12.33817,3.67087 l 1.42615,0.73749 -0.9579,0.77567 c -1.31922,1.06823 -8.16827,3.76164 -12.36146,4.86117 -4.82501,1.26522 -7.60788,1.48409 -9.27078,0.72914 z M 252.6395,307.86518 c -1.54448,-0.61555 -2.49331,-2.41775 -2.17269,-4.12679 0.48387,-2.57927 2.88131,-4.15743 8.10332,-5.33415 3.55331,-0.8007 8.10703,-0.95614 8.10703,-0.27673 0,0.71604 -3.01516,3.84431 -5.92979,6.15224 -4.08492,3.23461 -6.40919,4.26244 -8.10787,3.58543 z m 66.08362,-40.06358 c -0.97447,-0.3661 -1.82654,-0.6686 -1.89347,-0.6722 -0.0669,0 -0.31479,-0.5146 -0.55078,-1.1353 -0.55383,-1.4567 0.39778,-3.8412 1.93485,-4.8484 1.99703,-1.3085 5.59343,-0.9651 9.60395,0.9169 3.99378,1.8742 5.06632,2.8207 4.65712,4.1099 -0.33763,1.0638 -2.73234,1.6571 -8.21486,2.0351 -2.79225,0.1925 -4.22281,0.088 -5.53681,-0.406 z m 17.42169,-0.4443 c -0.96463,-2.1172 1.5619,-3.4162 2.90757,-1.495 0.87593,1.2506 0.19983,2.5892 -1.30773,2.5892 -0.74133,0 -1.26423,-0.3576 -1.59984,-1.0942 z"
     inkscape:export-filename="/home/goneri/fusioninventory/slides/pics/scale.png"
     inkscape:export-xdpi="165.28963"
     inkscape:export-ydpi="165.28963" />
</svg>
